<svg xmlns="http://www.w3.org/2000/svg" viewBox="0 0 193.5 40"><path d="M20.5,18.3,19,24.5c-1.2,4.7-2.4,9.4-3.5,14.1-.1.5-.3.6-.8.6H9.3c-.4,0-.7-.1-.8-.6-2.5-8-5-16-7.4-23.9-.4-1.1-.6-2.1-1-3.2s0-.7.6-.7H5.9c.5,0,.7.1.8.6,1.8,6.6,3.5,13.2,5.2,19.9l.3.7c.6-2.5,1.3-5,1.9-7.4,1.1-4.4,2.2-8.7,3.2-13.1a.9.9,0,0,1,1-.7h4.9c.6,0,.7.2.9.7,1.5,6.5,3.1,13,4.7,19.6.1.2.1.5.3,1,.4-1.7.8-3.2,1.2-4.7,1.5-5.3,2.9-10.6,4.4-15.9.1-.6.4-.7.9-.7h4.7c1,0,1,0,.7.9L35.6,28.8l-3,9.7c-.2.6-.4.7-1,.7h-5c-.6,0-.8-.2-.9-.7-1.6-6.5-3.2-13-4.9-19.4a2.4,2.4,0,0,0-.2-.8Z" style="fill:#fff"/><path d="M64.9,21.7,73,14l2.9-3a.9.9,0,0,1,.7-.3h7c-1,1-1.9,2.2-3,3.2l-7,6.7c-.4.4-.4.7-.1,1.2,3.7,5.5,7.4,11,11,16.5l.4.7H83.5l-5.4.2a1.5,1.5,0,0,1-1.3-.7c-2.6-4.3-5.4-8.6-8-12.9a.2.2,0,0,0-.3,0l-3.3,3.2a.7.7,0,0,0-.3.6c.1,3,0,6.1.1,9.1,0,.7-1.4,1.5-1.4,1.5H60c-1.3,0-1.4,0-1.4-.7V.7c0-.7.1-.7,1.3-.7h3.7C64.8,0,65,0,65,.8V21A5.6,5.6,0,0,1,64.9,21.7Z" style="fill:#fff"/><path d="M120.8,18.8h-2.7c-.4,0-.6,0-.7-.4a3.8,3.8,0,0,0-3.5-3.1,9.2,9.2,0,0,0-5.2.2c-1.1.4-2,1-2,2.4a2.5,2.5,0,0,0,1.9,2.6,34.8,34.8,0,0,0,6.1,1.7,35.8,35.8,0,0,1,5.6,1.6c6.1,2.4,5.7,9.8,2.2,12.9a13.1,13.1,0,0,1-6.9,3,18.3,18.3,0,0,1-9.8-.9,8.8,8.8,0,0,1-6.1-8.1c0-.5,0-.7.6-.7s3.4,0,5.1,0,.6,0,.7.5c.3,2.6,2,3.9,4.5,4.3a9.9,9.9,0,0,0,5.9-.5,3,3,0,0,0,2.2-2.6,2.9,2.9,0,0,0-1.8-3.1,31,31,0,0,0-5.2-1.5,33.7,33.7,0,0,1-6.9-1.9,7.4,7.4,0,0,1,.5-13.9,17.7,17.7,0,0,1,12.8-.2A8.6,8.6,0,0,1,124,18c.1.6.1.9-.6.8Z" style="fill:#fff"/><path d="M164.1,27.3v-11c0-.6-.1-.8-.8-.8H160c-.4,0-.5-.1-.5-.6V11.3c0-.4.1-.5.5-.5h3.5c.5,0,.6-.2.6-.7a25.8,25.8,0,0,1,.3-4.8c.8-3.3,2.8-5,6.3-5.2a26.9,26.9,0,0,1,4.9.1c.6.1.9.3.9,1s0,2.3,0,3.5-.2.6-.7.5a8.8,8.8,0,0,0-2.8-.1,2.3,2.3,0,0,0-2.5,2.6v2.4c0,.5.1.7.7.7h3.9c.6,0,.8.2.7.7v3.3c.1.5-.1.7-.6.7h-4c-.6,0-.7.1-.7.8V38.2c0,1.1.1,1-1,1h-4.6c-.6,0-.8-.1-.8-.8Z" style="fill:#fff"/><path d="M181.4,24.1c0-2.6,0-5.1.1-7.7,0-.8-.3-1-1-.9h-3.2c-.4,0-.5-.1-.5-.5V11.4c0-.5.1-.6.6-.6h3.4c.5,0,.7-.2.7-.7-.1-2.3,0-4.7-.1-7,0-.6.2-.8.8-.8h5c.5,0,.6.2.6.7v7.1c0,.6.2.7.7.7h4.3c.5,0,.7.1.7.7a19.3,19.3,0,0,0,0,3.4c0,.5-.2.6-.6.6h-4.4c-.5,0-.7.1-.7.6V31.9c.2,1.9.8,2.5,2.7,2.6h2.4c.4-.1.6-.1.6.3v4c0,.3-.1.5-.4.5a21,21,0,0,1-7.9-.2c-2.2-.7-3.1-2.4-3.5-4.4a28,28,0,0,1-.3-5C181.5,27.8,181.4,26,181.4,24.1Z" style="fill:#fff"/><path d="M154,23.7h2.6c.3,0,.6,0,.6.4.1,4.5-.8,8.6-4,11.9a12.8,12.8,0,0,1-8.8,3.9,16.6,16.6,0,0,1-8-1.1,13.3,13.3,0,0,1-7.6-10,17.1,17.1,0,0,1-.3-4.5c0-.4.1-.6.6-.6a41.7,41.7,0,0,0,5,0c.5,0,.7.1.7.7a13.5,13.5,0,0,0,.9,5.6c1.4,3.2,3.8,5,7.2,5a7.6,7.6,0,0,0,7.1-5.1,13,13,0,0,0,.9-5.5c-.1-.6.1-.7.7-.7A19.2,19.2,0,0,0,154,23.7Z" style="fill:#fff"/><path d="M45.4,25V11.7c0-.8.2-1,.9-.9h4.8c.5,0,.7.1.7.7v27c0,.5-.1.7-.7.7h-5c-.6,0-.7-.2-.7-.7Z" style="fill:#fff"/><path d="M88.2,25V11.6c0-.7.2-.8.9-.8h4.8c.5,0,.7.1.7.6-.1,9.1-.1,18.1,0,27.2,0,.5-.2.6-.7.6h-5c-.6,0-.7-.2-.7-.7Z" style="fill:#fff"/><path d="M153.6,21.4H151c-.4,0-.6-.2-.8-.6a8.2,8.2,0,0,0-3.5-4.9,7.6,7.6,0,0,0-10.3,2.6,11.5,11.5,0,0,0-1,2.3.7.7,0,0,1-.8.6,46.8,46.8,0,0,0-5.3,0c-.5,0-.5-.2-.4-.7a13.1,13.1,0,0,1,12.6-10.7,17.4,17.4,0,0,1,7.5,1.1c4.4,1.8,6.7,5.3,7.8,9.8.1.3,0,.5-.4.5Z" style="fill:#fff"/><path d="M20.5,18.3,19,24.5c-1.2,4.7-2.4,9.4-3.5,14.1-.1.5-.3.6-.8.6H9.3c-.4,0-.7-.1-.8-.6-2.5-8-5-16-7.4-23.9-.4-1.1-.6-2.1-1-3.2s0-.7.6-.7H5.9c.5,0,.7.1.8.6,1.8,6.6,3.5,13.2,5.2,19.9l.3.7c.6-2.5,1.3-5,1.9-7.4,1.1-4.4,2.2-8.7,3.2-13.1a.9.9,0,0,1,1-.7h4.9c.6,0,.7.2.9.7,1.5,6.5,3.1,13,4.7,19.6.1.2.1.5.3,1,.4-1.7.8-3.2,1.2-4.7,1.5-5.3,2.9-10.6,4.4-15.9.1-.6.4-.7.9-.7h4.7c1,0,1,0,.7.9L35.6,28.8l-3,9.7c-.2.6-.4.7-1,.7h-5c-.6,0-.8-.2-.9-.7-1.6-6.5-3.2-13-4.9-19.4a2.4,2.4,0,0,0-.2-.8Z" style="fill:#fff"/><path d="M64.9,21.7,73,14l2.9-3a.9.9,0,0,1,.7-.3h7c-1,1-1.9,2.2-3,3.2l-7,6.7c-.4.4-.4.7-.1,1.2,3.7,5.5,7.4,11,11,16.5l.4.7H83.5l-5.4.2a1.5,1.5,0,0,1-1.3-.7c-2.6-4.3-5.4-8.6-8-12.9a.2.2,0,0,0-.3,0l-3.3,3.2a.7.7,0,0,0-.3.6c.1,3,0,6.1.1,9.1,0,.7-1.4,1.5-1.4,1.5H60c-1.3,0-1.4,0-1.4-.7V.7c0-.7.1-.7,1.3-.7h3.7C64.8,0,65,0,65,.8V21A5.6,5.6,0,0,1,64.9,21.7Z" style="fill:#fff"/><path d="M120.8,18.8h-2.7c-.4,0-.6,0-.7-.4a3.8,3.8,0,0,0-3.5-3.1,9.2,9.2,0,0,0-5.2.2c-1.1.4-2,1-2,2.4a2.5,2.5,0,0,0,1.9,2.6,34.8,34.8,0,0,0,6.1,1.7,35.8,35.8,0,0,1,5.6,1.6c6.1,2.4,5.7,9.8,2.2,12.9a13.1,13.1,0,0,1-6.9,3,18.3,18.3,0,0,1-9.8-.9,8.8,8.8,0,0,1-6.1-8.1c0-.5,0-.7.6-.7s3.4,0,5.1,0,.6,0,.7.5c.3,2.6,2,3.9,4.5,4.3a9.9,9.9,0,0,0,5.9-.5,3,3,0,0,0,2.2-2.6,2.9,2.9,0,0,0-1.8-3.1,31,31,0,0,0-5.2-1.5,33.7,33.7,0,0,1-6.9-1.9,7.4,7.4,0,0,1,.5-13.9,17.7,17.7,0,0,1,12.8-.2A8.6,8.6,0,0,1,124,18c.1.6.1.9-.6.8Z" style="fill:#fff"/><path d="M164.1,27.3v-11c0-.6-.1-.8-.8-.8H160c-.4,0-.5-.1-.5-.6V11.3c0-.4.1-.5.5-.5h3.5c.5,0,.6-.2.6-.7a25.8,25.8,0,0,1,.3-4.8c.8-3.3,2.8-5,6.3-5.2a26.9,26.9,0,0,1,4.9.1c.6.1.9.3.9,1s0,2.3,0,3.5-.2.6-.7.5a8.8,8.8,0,0,0-2.8-.1,2.3,2.3,0,0,0-2.5,2.6v2.4c0,.5.1.7.7.7h3.9c.6,0,.8.2.7.7v3.3c.1.5-.1.7-.6.7h-4c-.6,0-.7.1-.7.8V38.2c0,1.1.1,1-1,1h-4.6c-.6,0-.8-.1-.8-.8Z" style="fill:#fff"/><path d="M181.4,24.1c0-2.6,0-5.1.1-7.7,0-.8-.3-1-1-.9h-3.2c-.4,0-.5-.1-.5-.5V11.4c0-.5.1-.6.6-.6h3.4c.5,0,.7-.2.7-.7-.1-2.3,0-4.7-.1-7,0-.6.2-.8.8-.8h5c.5,0,.6.2.6.7v7.1c0,.6.2.7.7.7h4.3c.5,0,.7.1.7.7a19.3,19.3,0,0,0,0,3.4c0,.5-.2.6-.6.6h-4.4c-.5,0-.7.1-.7.6V31.9c.2,1.9.8,2.5,2.7,2.6h2.4c.4-.1.6-.1.6.3v4c0,.3-.1.5-.4.5a21,21,0,0,1-7.9-.2c-2.2-.7-3.1-2.4-3.5-4.4a28,28,0,0,1-.3-5C181.5,27.8,181.4,26,181.4,24.1Z" style="fill:#fff"/><path d="M154,23.7h2.6c.3,0,.6,0,.6.4.1,4.5-.8,8.6-4,11.9a12.8,12.8,0,0,1-8.8,3.9,16.6,16.6,0,0,1-8-1.1,13.3,13.3,0,0,1-7.6-10,17.1,17.1,0,0,1-.3-4.5c0-.4.1-.6.6-.6a41.7,41.7,0,0,0,5,0c.5,0,.7.1.7.7a13.5,13.5,0,0,0,.9,5.6c1.4,3.2,3.8,5,7.2,5a7.6,7.6,0,0,0,7.1-5.1,13,13,0,0,0,.9-5.5c-.1-.6.1-.7.7-.7A19.2,19.2,0,0,0,154,23.7Z" style="fill:#fff"/><path d="M45.4,25V11.7c0-.8.2-1,.9-.9h4.8c.5,0,.7.1.7.7v27c0,.5-.1.7-.7.7h-5c-.6,0-.7-.2-.7-.7Z" style="fill:#fff"/><path d="M88.2,25V11.6c0-.7.2-.8.9-.8h4.8c.5,0,.7.1.7.6-.1,9.1-.1,18.1,0,27.2,0,.5-.2.6-.7.6h-5c-.6,0-.7-.2-.7-.7Z" style="fill:#fff"/><path d="M153.6,21.4H151c-.4,0-.6-.2-.8-.6a8.2,8.2,0,0,0-3.5-4.9,7.6,7.6,0,0,0-10.3,2.6,11.5,11.5,0,0,0-1,2.3.7.7,0,0,1-.8.6,46.8,46.8,0,0,0-5.3,0c-.5,0-.5-.2-.4-.7a13.1,13.1,0,0,1,12.6-10.7,17.4,17.4,0,0,1,7.5,1.1c4.4,1.8,6.7,5.3,7.8,9.8.1.3,0,.5-.4.5Z" style="fill:#fff"/></svg>