<svg xmlns="http://www.w3.org/2000/svg" viewBox="0 0 518.3 518.3"><path d="M259.2,515.8c141.7,0,256.6-114.9,256.6-256.6S400.9,2.5,259.2,2.5,2.5,117.4,2.5,259.2,117.4,515.8,259.2,515.8Z" style="fill:#3b64b1;stroke:#fff;stroke-miterlimit:10;stroke-width:5px"/><path d="M181,14.3c-13.6,5.1-12.8,33-11.2,49.1-2.9-26-2.4-33.8-1.6-39.6l2.4-.8-2.4.8c.8-4.6,2.1-5.8,3.3-6.3l9.5-3.2" style="fill:#fff"/><path d="M119,43.7,111,49l.4-.2a19.9,19.9,0,0,1,10.2-3.3h3.3l.5-.4,3.7-2.4-.7-.2c-4.1-.8-7-.5-9.4,1.2Zm8.3,1.6-.4.3c4.1.6,16.6,2.3,37.9,18.5l-.2-.3C145.5,49,136.4,44.9,130.5,43.1l-3.2,2.2" style="fill:#fff"/><path d="M59.6,97.2l-6.4,8.3v-.2A88.1,88.1,0,0,1,77.7,83c4.5-2.8,9.6-4.4,14.1-7.2,1.4-.9,1.9-2.4,2.9-3.5l-1.3.4C74.7,79.7,66.1,89,59.6,97.2ZM98.2,73.1l-.3.3c7.7-2.6,28.2-9.4,61.6-6.3h-.3a189.5,189.5,0,0,0-36.9-.5c-20.7,2.1-22.6,4.6-24.1,6.6" style="fill:#fff"/><path d="M7.2,209.3,4.8,224.1v-.5A155.2,155.2,0,0,1,16.1,183c2-4.6,4.9-8.9,6.6-13.6s1.2-6.5,2-9.7l-.9,1.7C15.5,176.5,11.2,189,7.2,209.3Zm21.2-50.4c-.1.3-.1.7-.2,1.1a188.2,188.2,0,0,1,26.7-33c6.3-6.2,13.9-11,20.2-17.3,1.1-1.1.5-2.5.9-3.7l-1.5,1a180,180,0,0,0-32.4,28.6c-12.2,13.7-12.5,15.6-13.7,23.3Zm56.5-56.4a.6.6,0,0,1-.1.4c9-5.9,32.7-21.3,71-31.2h-.2C116.9,81.4,94,94.9,85.3,100,85.2,100.5,85.1,101.4,84.9,102.5Z" style="fill:#fff"/><path d="M39.6,390.4c-2.7-5-6-9.5-8.6-14.5,5.7,10.2,13.9,23.6,20.5,33.3l-1-1.4A174.6,174.6,0,0,1,39.6,390.4ZM31,373.1l1,1.4a183.4,183.4,0,0,1-13.3-54.1c-.5-4.8.6-9.7-.8-14.4s-4.7-7.3-6.7-11.1v1.7c.5,29.6,8.4,60.3,19.8,76.5ZM17.2,290.5l.8,1.3c.6-10.8,2-36,15.1-71.5a54.8,54.8,0,0,1-4.3-7.4l-1,2.2a217.6,217.6,0,0,0-14.9,54.3c-1.8,12.6-1.8,12.6,4.2,21.1Zm21-84.9.6.8a280.1,280.1,0,0,1,41.2-66l-1.6-2.9L77.1,139a271,271,0,0,0-42.3,61.1A62.6,62.6,0,0,0,38.2,205.6Zm52.2-77.4c10.2-9.2,19.7-19.2,30.4-27.7a298,298,0,0,1,34.5-23.8h-.1a329.2,329.2,0,0,0-66,49.7Z" style="fill:#fff"/><path d="M148.3,486.8c-5-3.4-10.9-4.7-16.3-7l2.9,1.9c8.4,5.4,17.2,11,43.7,20.1l-.6-.2A119.5,119.5,0,0,1,148.3,486.8ZM99.8,430.9c-.5-.9-.6-2.5-1.5-3-5.1-2.6-10.7-3.8-15.9-6.1l1.6,3a167.8,167.8,0,0,0,28.6,38.8c8.8,8.9,8.8,8.9,23.2,13.5-5.4-4.7-21.5-18.9-36-46.2ZM89.7,413.3l2,.6c-9.3-22.4-14.6-43.2-17.7-69.6a134.6,134.6,0,0,1-14.2-5.5v1.8A230.3,230.3,0,0,0,76,408.1s6,2.7,13.7,5.2Zm-19-86.1,1.8.6c-.6-11.3-2.1-37.6,4.2-76.6-3.6-1.3-5.9-2.2-9.4-3.7l-.5,2.4A308.4,308.4,0,0,0,59,322.8C61.1,323.7,65.1,325.4,70.7,327.2Zm8.2-93.5,1.1.3a356.3,356.3,0,0,1,25.2-74.6l-3.6-1.5-.9,1.7A366.4,366.4,0,0,0,71.6,231c1.4.6,3.9,1.6,7.3,2.7Zm33.8-90h.4a288.9,288.9,0,0,1,45.5-63.7L157,81.7a350.6,350.6,0,0,0-46.7,61.1l2.4.9" style="fill:#fff"/><path d="M271.2,514H271l-11.5.5h.4c2.8.1,5.1,0,6.5,0l11.7-.6H278A51.4,51.4,0,0,1,271.2,514Zm-39.7-19.4-2-1.8c-7.1.6-11.5.8-18.4.9l2.2,1.8c9.9,7.6,17.9,12,27.6,15.4s8.3,2.9,22.2,1.8C252,509.9,241.7,503.9,231.5,494.6Zm-39.6-55.2-1.4-3c-8.5.7-13.5,1-21.6,1.1l1.5,3c4.1,7.7,14.9,28,32,45.3,7.2-.1,12-.4,19.5-1-4.6-5.1-16.6-18.8-30-45.4Zm-11-17.3,2.8-.2c-9.7-22.1-16.5-42.2-23.4-69.3-7.5.5-12.2.8-19.4.9l.3,1.8A370.9,370.9,0,0,0,162.1,423C165.6,423,172.1,422.8,180.9,422.1Zm-27.1-86.8,2.4-.2a552.9,552.9,0,0,1-11.5-76.9c-5,.3-8,.5-12.9.6v2.6a504.9,504.9,0,0,0,5.9,74.7c3-.1,8.6-.2,16.1-.8ZM142,240.1h1.5a492,492,0,0,1,1.9-75.8l-5,.2-.3,1.7a517.3,517.3,0,0,0-8,74.5C133.8,240.6,137.4,240.5,142,240.1Zm5.1-92.8h.4c2.7-17.4,7.1-40.6,17.2-66l-.8,1.7a404.9,404.9,0,0,0-20.1,64.5l3.3-.2" style="fill:#fff"/><path d="M347.8,495.8h0l-.8.3c-4.2,1.6-7.5,2.8-11.8,4.2,4,1.6,4,1.6,16.1-2.8H351c-.3.1-1.3.1-3.2-1.7Zm-16.2-25.4-1.1-2-1.2.5c-6,2.3-11,4.2-19.1,6.9,12.2,16.7,18.1,20.6,20.9,22.4,5-1.7,9.4-3.3,14.3-5.2a168.5,168.5,0,0,1-13.8-22.6Zm-28.8-57.9c-.5-.9-1-2.2-1.4-3.1l-1.5.6c-7.1,2.8-12.8,5-22.3,8.1a518.1,518.1,0,0,0,26.7,49.1c7.3-2.4,14.3-5,21.5-7.8-6.2-12.1-12.1-23.5-23-46.9ZM293,395.2l1.4-.6c-12.4-26.6-19.4-42.8-30-67.2l-1.3.5c-6.6,2.6-11.5,4.4-20.1,7.3,3.7,10.1,13.9,37.1,27.7,68,9.6-3.2,17.4-6.1,22.3-8Zm-37.3-84.3,1.3-.4c-6-13.9-12.8-29.5-30-71.8l-.8.4c-4.2,1.6-7.1,2.7-13.4,4.8,4.2,14.3,10,33.8,23.9,73.9,8.9-3,16.3-5.8,19-6.9Zm-36.3-89,.8-.3c-6.8-17.1-16.7-42.9-25.7-68.5l-5.5,2,.4,1.6c8.4,34.7,14.3,55.6,18.3,69.5l11.7-4.3ZM189,137.7c-4.8-19.5-11.9-38.3-16.3-58l.2,1.6c2.7,14,6.3,31.9,12.3,57.8Z" style="fill:#fff"/><path d="M417.3,457.6v-.2l-1.3.9c-2.9,2.2-6,4.1-8.9,6.3-.2.2-.1.4-.2.7a12.7,12.7,0,0,1-4.1,5.1l8.2-5.9h.1A25.2,25.2,0,0,0,417.3,457.6Zm4.5-37.5a19,19,0,0,0-.3-2.5l-2,1.5c-5.3,3.9-8.8,6.4-14.3,10.1,1.3,5.3,5,19.5,3.3,30.9,11.3-7.7,11.4-8.1,11.7-9,1-3,4-11.9,1.6-31Zm-19.3-63.6c-.4-.9-1-2.1-1.4-3.1l-2.3,1.8c-6.2,4.6-10.3,7.4-16.8,11.8,10.9,24,16,38.3,20.4,52.4,6.7-4.5,10.9-7.5,17.2-12.2-2.2-10.1-7-27.1-17.1-50.7Zm-10.4-15.8,2.3-1.7a685.1,685.1,0,0,0-36.3-64.1l-2.1,1.5c-5.6,4.2-9.3,6.8-15.1,10.7,9.7,17.1,21.2,37.6,34.4,65.4,3.2-2.2,9.2-6.2,16.8-11.8Zm-45.9-79.3,2-1.4c-23.2-33.9-38.5-52.6-46.7-62.6l-1.4,1c-3.7,2.8-6.2,4.5-10,7.1,23.1,34.3,35.7,55.7,41.7,66,2.8-1.9,7.9-5.3,14.4-10.1Zm-57.5-77,1.2-.9c-7.4-8.7-24.8-29.1-50.6-54.9l-.5.4-3.9,2.7c14.6,17.5,29.7,37.3,44.9,58.9,1.7-1.1,4.9-3.3,8.9-6.2Zm-61.5-67,.4-.2A622.6,622.6,0,0,0,180,75.7h0c28.4,25.9,28.4,25.9,44.3,43.8l2.9-2.1" style="fill:#fff"/><path d="M459.6,417.7l4.3-5.6-.5.7Zm26.5-62.9a30.3,30.3,0,0,1,.2-3.1l-1.2,1.7c-1.2,1.7-4.3,6.1-7.8,10.4a7,7,0,0,0-1.3,1.7,9.4,9.4,0,0,0-.1,2.9,95.9,95.9,0,0,1-2.4,20,79.6,79.6,0,0,1-7.7,20c5.4-6.8,18-22.7,20.3-53.6Zm-13-70.6-1.3-3.2-1.4,2c-3.8,5.5-6.3,8.8-10.6,14.2,9.2,21.3,13.9,38.4,15.6,57.2,7.3-9.1,10.9-14.4,10.9-14.4-.3-7.6-2.1-28.3-13.2-55.8ZM464,269.3a24.3,24.3,0,0,0,1.4-2,298.3,298.3,0,0,0-41-60.3l-1.3,1.8c-3.4,4.8-5.7,7.9-9.4,12.7,17,21.7,28.9,40.2,39.7,61.8C455.5,280.6,459.4,275.8,464,269.3Zm-52-72.8,1.2-1.7a416.9,416.9,0,0,0-59-51.1l-.8,1.2c-2.2,3.3-3.7,5.3-6.2,8.5a459.3,459.3,0,0,1,55.7,55c1.8-2.3,5.2-6.4,9.1-11.9Zm-72.7-61.4.8-1.1a446.7,446.7,0,0,0-69-37.4l-.3.5-2.4,3.3a433.7,433.7,0,0,1,65.2,42l5.7-7.3Zm-84-44.5.3-.3a374.7,374.7,0,0,0-70.7-19.8c19,4.2,36.9,8.1,68.6,22.5l1.9-2.4" style="fill:#fff"/><path d="M510.4,307.6c1.1-7.6,2.8-17.7,3.6-25.3v.4c-.1.8-4.4,28.7-4.5,28.8s.6-2.7.9-3.9ZM503,206.7l-1.3-3.2-.2,2a111.2,111.2,0,0,1-1.7,12.2,5.2,5.2,0,0,0-.4,2.1,14.4,14.4,0,0,0,1.3,3.2,170.3,170.3,0,0,1,8,25.4,154,154,0,0,1,3.9,34.5C519,252.2,508.1,219.4,503,206.7Zm-7.2-13.6c.3-3.6-14.7-32-43.5-58.7v1.8a109.7,109.7,0,0,1-1.9,12.8c18.9,18.7,31.8,36.1,43.1,58A109.2,109.2,0,0,0,495.8,193.1Zm-54.4-66.3a9.9,9.9,0,0,0,.2-1.7,272,272,0,0,0-65-38.7v1.2a84.1,84.1,0,0,1-1.1,8.4c35.5,18,55.5,35.4,64,42.8A93.9,93.9,0,0,0,441.4,126.8ZM362.5,81.9c0-.3.1-.8.1-1.1a335.8,335.8,0,0,0-77.9-18.3V63c-.2,1.2-.2,2-.4,3.2a329.3,329.3,0,0,1,76.9,23.1c.3-1.4.8-4,1.3-7.4ZM268.9,61.4c-16-2.3-56.3-1.1-82.3,3.9,13.6-.9,27.1-3.3,40.7-3.5a312.6,312.6,0,0,1,41.1,2.1c.1-.8.3-1.4.5-2.5" style="fill:#fff"/><path d="M480.4,129.6c-14.7-23.2-14.7-23.2-23.8-34.2l-.7-.8a163.5,163.5,0,0,0-22.5-22.3l1,1.3c2.4,3,3.9,6.5,6.5,9.3S448.5,89.5,452,93a173.6,173.6,0,0,1,28.4,36.6ZM425.8,67c-.1-.2-21.7-19.1-63.9-29.6l.7.8c1.5,1.9,1.8,4.8,4.3,6.1,6.6,3.5,14,4.4,20.8,7.1a196.5,196.5,0,0,1,44,24.3A70.1,70.1,0,0,0,425.8,67ZM351.5,35.7c-.5-.6-29.8-8.2-75.4-2.3l.2.3A19.5,19.5,0,0,1,278,36a249.8,249.8,0,0,1,77.1,5.2,64.9,64.9,0,0,0-3.6-5.5Zm-87.7-.1c-.3,0-34.3,4.1-79.3,25.7,41.5-16.4,49-19.4,80.5-23.9l-1.2-1.9" style="fill:#fff"/><path d="M351.7,19.6c-6.6-2.3-15.4-5.4-22.1-7.4l-1.5-.5a115.3,115.3,0,0,0-13-2.7l1.2.3c9,2.7,9,2.7,16.6,4.5A140.6,140.6,0,0,1,351.7,19.6Zm-42-11.1c-.2-.1-24.7-5.1-61.4,8.2l.5.2c3.2.9,3.2.9,8.6-.6a173.2,173.2,0,0,1,22.5-4.8,150.2,150.2,0,0,1,37.3-.4c-1.4-.5-4-1.5-7.5-2.6ZM241.6,19.6c-.1,0-26.9,8.9-62,40.2,24-18.9,36.1-28.4,64.6-39.2l-2.6-1" style="fill:#fff"/><path d="M245.6,2.5,233,3.5h-.2c-6.5.8-14.6,2.7-25.1,10.7h.5a19.9,19.9,0,0,0,4.2-.4c3.4-1.5,6.3-3.9,9.7-5.4a62.2,62.2,0,0,1,23.5-5.9ZM206.1,15.8c-.1,0-15.3,9.7-32.2,45,7.2-13.7,16.3-30.7,35.8-45.2l-3.6.2" style="fill:#fff"/><path d="M175.6,21.2C250.6-2.7,305,31.6,277.7,85.6,240,160,97,193.4,76.3,132.6,63.6,95.1,107.4,44,170,23.2,86.6,54.6,61.1,120.4,106.7,141.3c9.6,4.4,36.8,13,80.5-3,73.4-26.6,108-92.8,60.8-116.1-10.4-5-33.5-11.9-72.6-.6.1-.1.1-.3.2-.4" style="fill:#fff"/><path d="M283.5,3.4l11.4,1.4C412.6,23.1,395,128.9,298.7,199.4c-127,93-292,75-276-30,2.9-18.7,11.1-34.1,17.1-44v-.2c3.1-4.8,7.1-11.1,10.4-15.7-58.8,82.8,1,148.3,116.4,127.4a288.1,288.1,0,0,0,47.3-13C349.5,174.4,407.4,51.8,322.5,13.3c-16.6-7.7-34.6-9.5-40.6-10.1l1.6.2" style="fill:#fff"/><path d="M408.3,50.2,419.9,59c110.3,105.2-80.6,280.3-262.1,293.8C86.2,358.1,2.5,335.4,2.5,254.1l1-18.3C-3.6,327.2,110.2,363.9,247,314.2c160.5-58.6,247.7-202,160.7-264.4Z" style="fill:#fff"/><path d="M491.1,150.2l3.7,8.4C553.1,306.7,246.7,495.9,82.4,421.8c-35.5-16-47.5-38.5-51.4-45.9l-4.6-9.2-4-9.2c31,67.5,140.4,84.9,260.3,41.5,147.2-53.9,244.7-176.4,204.5-256.9l3.9,8.1" style="fill:#fff"/><path d="M514,282.3C498.6,426.3,232.3,550.2,112.6,469l-3.3-2.3L95.5,456.1c46.1,36.9,130.2,39.7,219.7,7.3,112.4-41.3,198.4-127.9,199.9-201.5-.3,6.1-.5,14.3-1.1,20.4" style="fill:#fff"/><path d="M477.7,391.7c-4.1,6.2-9.5,14.4-13.8,20.4-47.3,62.1-141.4,106.1-218.8,102.3l-11-.9c-5.7-.7-13.3-1.6-18.9-2.5,37.3,5.9,78.7.8,123.1-15.3,62.3-22.9,115.3-63.2,141.6-107.7l-2.2,3.7" style="fill:#fff"/><path d="M174.3,80.7c9-3.6,14.3-11.3,11.9-17.2s-11.5-7.6-20.5-3.9-14.2,11.3-11.9,17.1S165.4,84.3,174.3,80.7Z" style="fill:#fff"/><path d="M319,331.2a1.5,1.5,0,0,1-1.3.1,1.4,1.4,0,0,1-.9-.8l-1.1-2.1-5.8,2.9,1.1,2.2a1.7,1.7,0,0,1,.1,1.2,1.6,1.6,0,0,1-.8,1,1.7,1.7,0,0,1-1.2.1,2.7,2.7,0,0,1-1-.8l-1.1-2.2a3.6,3.6,0,0,1-.2-2.5,3.8,3.8,0,0,1,1.6-1.9l5.8-2.9a3.1,3.1,0,0,1,2.5-.2,3.3,3.3,0,0,1,1.9,1.6l1.1,2.2a1.6,1.6,0,0,1,.1,1.2C319.6,330.7,319.4,331.1,319,331.2Z" style="fill:#fff"/><path d="M322.2,345.8l-.9.7a2.8,2.8,0,0,1-1.3.3l-18.9,2.9,5.6,11a3.6,3.6,0,0,0,1.1,1.4,2.8,2.8,0,0,0,1.5.8,3.2,3.2,0,0,0,1.7.2,4.7,4.7,0,0,0,1.7-.4L339.4,349a4.5,4.5,0,0,0,1.4-1,3.5,3.5,0,0,0,.8-1.6,3.2,3.2,0,0,0,.2-1.7,5.3,5.3,0,0,0-.4-1.7l-5.7-11Z" style="fill:#fff"/><path d="M332.9,326.4l1.7,3.3-14.1,14.4-.7.3-19.9,3-1.7-3.3a4.8,4.8,0,0,1-.5-1.7,9.9,9.9,0,0,1,.2-1.7,3.8,3.8,0,0,1,.9-1.5,3.8,3.8,0,0,1,1.4-1.1l26.7-13.6a3.4,3.4,0,0,1,1.7-.5,5,5,0,0,1,1.7.2,3.8,3.8,0,0,1,1.5.9A3.5,3.5,0,0,1,332.9,326.4Z" style="fill:#fff"/><path d="M291.5,263.9l-3.4-6.7a5,5,0,0,1-.3-3.4,4.7,4.7,0,0,1,2.3-2.7,1.4,1.4,0,0,1,1.1-.1,1.8,1.8,0,0,1,.9.8,1.5,1.5,0,0,1-.7,2l-.4.4a.5.5,0,0,0-.3.5,1.3,1.3,0,0,0-.1.6.8.8,0,0,0,.2.5l2,4.1a2.6,2.6,0,0,1,.2,2.3A2.8,2.8,0,0,1,291.5,263.9Z" style="fill:#fff"/><path d="M272.7,273.5l-3.4-6.7a4.9,4.9,0,0,0-2.6-2.3,5.3,5.3,0,0,0-3.5.3l-.5.4a.8.8,0,0,0-.2.5,1.1,1.1,0,0,0,.1,1.1,1.3,1.3,0,0,0,.8.8,1.7,1.7,0,0,0,1.2-.1l.6-.2h.5l.5.3a1,1,0,0,1,.4.5l2.1,4a3.1,3.1,0,0,0,1.7,1.5A3,3,0,0,0,272.7,273.5Z" style="fill:#fff"/><path d="M290.9,271.8l-11.4,5.9a2.5,2.5,0,0,1-1.2.1c-.3-.2-.7-.4-.8-.8a1.1,1.1,0,0,1-.1-1.1,1.6,1.6,0,0,1,.7-.9l11.4-5.8a1.3,1.3,0,0,1,1.2-.1,1.6,1.6,0,0,1,.9.7,2.5,2.5,0,0,1,.1,1.2C291.5,271.3,291.3,271.7,290.9,271.8Z" style="fill:#fff"/><path d="M285.2,274.8H284l-.5-.2-.3-.5-2.9-5.7a1.3,1.3,0,0,1-.1-1.2,1.4,1.4,0,0,1,.7-.8,1.3,1.3,0,0,1,1.2-.1,1.4,1.4,0,0,1,.8.7l3,5.7c0,.2.1.4.1.6a1.3,1.3,0,0,1-.1.6c0,.2-.1.3-.2.5Z" style="fill:#fff"/><path d="M284.5,256.5l-13.6,6.9-1.1.3a2.5,2.5,0,0,1-1.2-.2l-.9-.6-.6-1L262.9,248a2.2,2.2,0,0,1,.1-1.8,2.4,2.4,0,0,1,1.2-1.4l9.1-4.6a2.3,2.3,0,0,1,1.8-.2,2.7,2.7,0,0,1,1.6,1l8.7,11.6a1.8,1.8,0,0,1,.4,1,2.4,2.4,0,0,1,0,1.2,2.4,2.4,0,0,1-.5,1A2.7,2.7,0,0,1,284.5,256.5Z" style="fill:#fff"/><path d="M291.9,263.7l-19.5,10a1.4,1.4,0,0,1-.9,0,1,1,0,0,1-.6-.5l-1.4-2.7a4.3,4.3,0,0,1-.5-1.6,8.8,8.8,0,0,1,.2-1.6,6.4,6.4,0,0,1,.8-1.4l1.3-1,14.1-7.2a4.2,4.2,0,0,1,1.6-.4,3.1,3.1,0,0,1,1.6.2,2.9,2.9,0,0,1,1.4.8,5.8,5.8,0,0,1,1,1.2l1.3,2.7a1,1,0,0,1,.1.9A1,1,0,0,1,291.9,263.7Z" style="fill:#fff"/><path d="M224.8,383l-8.5-.3a7.6,7.6,0,0,0,.4-4.7l-.9-3.6a6.2,6.2,0,0,0-1.2-2.6,6.4,6.4,0,0,0-2-2,7.2,7.2,0,0,0-2.7-.9,5.3,5.3,0,0,0-2.8.1,6.2,6.2,0,0,0-2.6,1.2,7.6,7.6,0,0,0-1.9,2.1,6.6,6.6,0,0,0-.9,2.7,6.5,6.5,0,0,0,.2,2.8l.9,3.7a7.3,7.3,0,0,0,2.6,3.9l-7.5,4.3-.2,7.6.2.7.5.2a28.5,28.5,0,0,0,16.1.5,29.1,29.1,0,0,0,13.9-8l.4-.4-.2-.7ZM204,378.4a14,14,0,0,0,5.5-3.2,8.3,8.3,0,0,0,1.6-2.1l.4.4a4.3,4.3,0,0,0,2.4,1,.4.4,0,0,0,.1.3l.9,3.7a5.6,5.6,0,0,1-.6,4,5.4,5.4,0,0,1-3.3,2.4,5.6,5.6,0,0,1-4-.6,5.3,5.3,0,0,1-2.4-3.3l-.6-2.6Zm8.4,8.1.4,1.8-1.8.4-.4-1.8Zm-3,3.5v1.2l-3.6-4,1.4-.8,1.3.4Zm4.4,6-2.3-2.6-.2-2.8,2.1-.6,1.2,2.7Zm1.5-6.3-.5-1.1-.8-3.2a4.8,4.8,0,0,0,1.1-.9h1.5Z" style="fill:#fff"/><path d="M134.5,378.3l-20.7-4.9a.8.8,0,0,0-.8.1l-19.1,9.1a1,1,0,0,0-.6.5.9.9,0,0,0-.1.7.9.9,0,0,0,.3.7.8.8,0,0,0,.6.4l20.6,5a1.4,1.4,0,0,0,.9-.1l19.1-9.2.6-.5a1.7,1.7,0,0,0,.1-.7.9.9,0,0,0-.3-.7l-.6-.4Z" style="fill:#fff"/><path d="M134,395l-1.1-10.8-2.4,1.2,1.1,9.9a1.9,1.9,0,0,0-.8,1,2,2,0,0,0-.2,1.3,2.8,2.8,0,0,0,.4,1.2,2.5,2.5,0,0,0,1,.8l.7,6.1a1.2,1.2,0,0,0,.4.8,1.6,1.6,0,0,0,.9.3,1.3,1.3,0,0,0,.9-.5.9.9,0,0,0,.2-.9l-.6-6a2.5,2.5,0,0,0,.8-1,2.1,2.1,0,0,0,.2-1.3,2.1,2.1,0,0,0-.4-1.2,2.4,2.4,0,0,0-1.1-.9Z" style="fill:#fff"/><path d="M115.4,392.4h-1.3l-11.6-2.8.6,5.5c.2,1.3,1.7,2.3,4.5,2.9a29.4,29.4,0,0,0,16.6-1.8c2.6-1.2,3.9-2.4,3.8-3.8l-.6-5.4L116.6,392Z" style="fill:#fff"/><path d="M176,287.1a6.2,6.2,0,0,1,.6-5,6.7,6.7,0,0,1,4-3.2l12.3-3.6a3.8,3.8,0,0,0-1.8-1.5,3.6,3.6,0,0,0-2.5-.1l-15.5,4.4a4.2,4.2,0,0,0-2.3,1.8,3.9,3.9,0,0,0-.4,3l6,20.9a3.9,3.9,0,0,0,1.9,2.3,3.7,3.7,0,0,0,2.9.4h.3Z" style="fill:#fff"/><path d="M196.9,277.1l-15.5,4.5a3.8,3.8,0,0,0-2.3,1.8,3.9,3.9,0,0,0-.4,3l5.6,19.5a4.1,4.1,0,0,0,1.9,2.4,3.7,3.7,0,0,0,2.9.3l15.6-4.5a3.7,3.7,0,0,0,2.6-4.7l-5.6-19.6a3.8,3.8,0,0,0-1.8-2.3A3.9,3.9,0,0,0,196.9,277.1Zm3.9,23.8-10.1,2.9h-.9l-.3-.3-.2-.3v-.5c0-.1.1-.2.1-.4l.3-.3.4-.2,10.1-2.9h.8l.4.3.2.3v.5c0,.1-.1.2-.1.4l-.3.3-.4.2Zm-1.5-5.4-10.2,2.9h-.8l-.3-.3a.5.5,0,0,1-.2-.4c-.1-.1-.1-.2-.1-.4s.1-.2.2-.4.1-.2.3-.3l.3-.2,10.2-2.9h.8l.3.3c.1.1.2.2.2.3s.1.3,0,.5a.8.8,0,0,1-.1.4l-.3.3-.3.2Zm-1.4-4.8-10.1,2.9h-.9l-.3-.3-.2-.4v-.4c0-.1.1-.3.1-.4l.3-.3a.5.5,0,0,1,.4-.2l10.1-2.9a1.1,1.1,0,0,1,.8.1,1.5,1.5,0,0,1,.5.6,1.1,1.1,0,0,1-.1.8c-.1.3-.3.4-.6.5Zm-1.6-5.4-10.1,2.9h-.8l-.3-.3a.5.5,0,0,1-.2-.4.6.6,0,0,1-.1-.4c.1-.1.1-.3.2-.4s.1-.2.3-.3l.3-.2,10.2-2.9h.4l.4.2.3.2a.8.8,0,0,1,.2.4c0,.1.1.3,0,.4s0,.3-.1.4-.2.3-.3.3l-.4.2Z" style="fill:#fff"/><path d="M343.3,191a16.9,16.9,0,0,0-5.8,7.9,17.2,17.2,0,0,0-.4,9.8,17,17,0,0,0,5.1,8.4,16.6,16.6,0,0,0,8.9,4.1,16.3,16.3,0,0,0,9.7-1.5,16.8,16.8,0,0,0,9.5-16.2,16.4,16.4,0,0,0-3.3-9.2,17.1,17.1,0,0,0-23.7-3.3Zm15.5,18.9,1.2,1.5v.4c0,.1,0,.2-.1.2v.2l-1.1.8h-.7l-1.1-1.4a11.7,11.7,0,0,1-3,1.4h-.8a1,1,0,0,1-.5-.6l-.3-.7a.9.9,0,0,1-.1-.5.6.6,0,0,1,.1-.4l.3-.3.4-.3a7.5,7.5,0,0,0,2.7-1.3c1.1-.8,1.6-1.8,1-2.6s-1.6-.8-3.4-.2-4.8,1-6.2-.9-1.1-4,.6-6l-1-1.4a.8.8,0,0,1-.2-.4c.1-.2.1-.3.3-.4l1-.8h.8l.9,1.3a13.4,13.4,0,0,1,2.4-1.2,1.1,1.1,0,0,1,.8,0l.5.5.3.8c.1.1.1.2.1.4a.6.6,0,0,1-.1.4l-.2.3-.4.2a7.8,7.8,0,0,0-2.2,1.2c-1.3,1-1.3,1.8-.9,2.4s1.5.5,3.6-.1,4.7-.6,6.1,1.2S360.8,207.8,358.8,209.9Z" style="fill:#fff"/><path d="M402.4,292.8l.4-22.9a.4.4,0,0,1,.1-.3c0-.1.1-.2.2-.3s.1-.1.3-.2h8.7l.3.2c.1.1.2.2.2.3s.1.2.1.3l-.4,22.9Z" style="fill:#fff"/><path d="M411.5,268v-.8a2.6,2.6,0,0,0-.2-1.5,8.3,8.3,0,0,0-.8-1.2l-1.2-.8a3.9,3.9,0,0,0-4.1.7,4,4,0,0,0-1.2,2.7v.8Z" style="fill:#fff"/><path d="M402.9,294l3.5,7,.3.3a.5.5,0,0,0,.4.2h.4l.3-.2c.1-.1.1-.2.2-.2l3.7-6.9Z" style="fill:#fff"/><path d="M400.6,283.2a.2.2,0,0,0,.2-.2.6.6,0,0,0,.1-.4v-8.1a1.4,1.4,0,0,1,.2-.6l.3-.4v-2a3.4,3.4,0,0,0-1.7,1.1,4.4,4.4,0,0,0-.7,1.9v8.1c0,.2.1.3.2.5l.3.3h.6c.1-.1.3-.1.4-.3Z" style="fill:#fff"/><path d="M101.7,296.6h1.9v1.9h-1.9Z" style="fill:#fff"/><path d="M90.5,294.5l16,.3a8.4,8.4,0,0,1,3.6-6.1,7.7,7.7,0,0,1,3.3-1.2,8.8,8.8,0,0,1,3.6.2v-1.2a1.4,1.4,0,0,0-.2-.7,1.1,1.1,0,0,0-.7-.3h-8.5v-2.9a.7.7,0,0,0-.2-.6.9.9,0,0,0-.7-.3H99.2a.8.8,0,0,0-.7.2.9.9,0,0,0-.3.7v2.8H89.3l-.3.2c-.1.1-.2.2-.2.3a.8.8,0,0,0-.1.4v6.9a2.4,2.4,0,0,0,.6,1.1A2.1,2.1,0,0,0,90.5,294.5Zm9.6-11.1h5.6v1.8H100Z" style="fill:#fff"/><path d="M110.4,302.4a7.8,7.8,0,0,1-2.6-2.5,7.3,7.3,0,0,1-1.2-3.2h-1.1v2.8a.9.9,0,0,1-.3.7l-.7.2h-3.8a.7.7,0,0,1-.6-.3.9.9,0,0,1-.3-.7v-2.8l-9.5-.2a4.5,4.5,0,0,1-1.9-.5l-.2,12.3a1,1,0,0,0,1,1l21,.4c-.1-.5,0-.2.1-7.2Z" style="fill:#fff"/><path d="M119,291.2a5.1,5.1,0,0,0-2.3-1.5,5,5,0,0,0-2.7-.4,7.9,7.9,0,0,0-2.6.8,6.1,6.1,0,0,0-2,1.9,7.4,7.4,0,0,0-1,2.6,8.2,8.2,0,0,0,.2,2.7,7.2,7.2,0,0,0,1.4,2.4,6.1,6.1,0,0,0,2.3,1.5v2.2h4.4v-2.2a7,7,0,0,0,2.5-1.7,5.9,5.9,0,0,0,1.4-2.7,6.5,6.5,0,0,0-.1-3.1A5.3,5.3,0,0,0,119,291.2Zm-4.5,8.6a4.1,4.1,0,0,1-2.4-.8,4.3,4.3,0,0,1-1.5-2,3.3,3.3,0,0,1-.2-2.4,3.7,3.7,0,0,1,1.2-2.2,4.8,4.8,0,0,1,2.2-1.2,5.4,5.4,0,0,1,2.5.3,4.9,4.9,0,0,1,1.9,1.6,5.5,5.5,0,0,1,.7,2.4,4.7,4.7,0,0,1-.4,1.7,4.2,4.2,0,0,1-.9,1.4,3.8,3.8,0,0,1-1.5.9,4.1,4.1,0,0,1-1.6.3Z" style="fill:#fff"/><path d="M112.1,309.1a1.9,1.9,0,0,0,.7,1.5,2.1,2.1,0,0,0,1.5.7,2.5,2.5,0,0,0,1.6-.6,2.3,2.3,0,0,0,.6-1.6v-3.7h-4.4Z" style="fill:#fff"/><path d="M243.4,445.1a3,3,0,0,0-1.9,1.4,3.4,3.4,0,0,0-.3,2.4,3,3,0,0,0,1.4,1.9,3.4,3.4,0,0,0,2.4.4,3.6,3.6,0,0,0,1.9-1.5,3.3,3.3,0,0,0,.3-2.4,3,3,0,0,0-1.4-1.9,3.4,3.4,0,0,0-2.4-.3Z" style="fill:#fff"/><path d="M248.4,450.3a4.5,4.5,0,0,1-1.3,1.5,4.6,4.6,0,0,1-1.7.9,6.1,6.1,0,0,1-1.9.1,6.2,6.2,0,0,1-1.9-.7,4.7,4.7,0,0,0-.3,3.3l.2.7v.3c.1.1.2.1.2.2h.6l7.6-2.1h.3l.2-.2a.4.4,0,0,1,.1-.3.4.4,0,0,0-.1-.3l-.2-.8A4.6,4.6,0,0,0,248.4,450.3Z" style="fill:#fff"/><path d="M243.3,469.8l-5.9-6.7a1.6,1.6,0,0,0-1.1-.5,1.5,1.5,0,0,0-1.1.4l-.9.8-.2.2v.6a.2.2,0,0,0,.2.2l6.9,7.8a.5.5,0,0,0,.5.3l.6-.2.8-.7.4-.5c.1-.2.1-.4.2-.6s-.1-.4-.1-.6Z" style="fill:#fff"/><path d="M258.1,454.4a1.1,1.1,0,0,0-1.1,0,1.8,1.8,0,0,0-.8.7l-2.7,6.1a1.9,1.9,0,0,1-1,.8l-3.5.9a.6.6,0,0,1-.6,0,.9.9,0,0,1-.3-.5.6.6,0,0,1,0-.6,1,1,0,0,1,.5-.4l3-.8a1.3,1.3,0,0,0,.9-.7,1.6,1.6,0,0,0,.2-1.2,1.6,1.6,0,0,0-.7-.9,1.7,1.7,0,0,0-1.2-.2l-3.9,1.1a1.2,1.2,0,0,1-1-.3,7.4,7.4,0,0,0-2.5-.5,5.4,5.4,0,0,0-2.5.6,7,7,0,0,0-2,1.8h0l-.8,1.2,6.5,7.4,8.6-2.3a3.5,3.5,0,0,0,1.9-1,4.8,4.8,0,0,0,1.2-1.7l2.7-7.5a1.8,1.8,0,0,0,0-1.2l-.3-.5C258.5,454.6,258.3,454.4,258.1,454.4Z" style="fill:#fff"/><path d="M360.7,401.3l-22.1,11.3a1.4,1.4,0,0,0-.8.9,1.5,1.5,0,0,0,.1,1.3l7.4,14.6a1.6,1.6,0,0,0,1,.8,1.7,1.7,0,0,0,1.2-.1l22.1-11.3a2,2,0,0,0,.9-.9,1.9,1.9,0,0,0-.1-1.3L362.9,402a1.4,1.4,0,0,0-.9-.8A1.9,1.9,0,0,0,360.7,401.3Z" style="fill:#fff"/><path d="M368.3,424.1l-4,2-1.1-2.2-7.7,4,1.1,2.1-4,2.1c-.2.1-.4.2-.4.4a.9.9,0,0,0,0,.7,1,1,0,0,0,.5.4h.6l15.7-8a.8.8,0,0,0,.4-.4.9.9,0,0,0,0-.7,1,1,0,0,0-.5-.4Z" style="fill:#fff"/><path d="M447.8,352a4,4,0,0,0-1.3,1.6,3.8,3.8,0,0,0-.1,2.1,3.5,3.5,0,0,0,1,1.9,3.4,3.4,0,0,0,1.9.9,3.8,3.8,0,0,0,2.1-.2,4.3,4.3,0,0,0,1.6-1.4,2.9,2.9,0,0,0,.5-2,3.2,3.2,0,0,0-.6-2,3.5,3.5,0,0,0-2.4-1.5A3.3,3.3,0,0,0,447.8,352Z" style="fill:#fff"/><path d="M454.9,355.9a5.2,5.2,0,0,1-5.8,4.1,6.7,6.7,0,0,0,0,2,5.8,5.8,0,0,0,.8,1.8l.9,1.2a.5.5,0,0,0,.4.3.7.7,0,0,0,.6-.1l7.2-5,.3-.5c0-.2,0-.4-.2-.5l-.8-1.3a4.7,4.7,0,0,0-1.5-1.3A4.4,4.4,0,0,0,454.9,355.9Z" style="fill:#fff"/><path d="M429.2,350.8a3.1,3.1,0,0,0-1.4,2.3,3.5,3.5,0,0,0,2.9,4.2,3.6,3.6,0,0,0,1.3-7.1,3.5,3.5,0,0,0-2.8.6Z" style="fill:#fff"/><path d="M436.3,354.7a4.9,4.9,0,0,1-2,3.2,5.2,5.2,0,0,1-3.8.9,6.7,6.7,0,0,0,0,2,6.4,6.4,0,0,0,.8,1.9l.8,1.1c.2.2.3.3.5.3a.7.7,0,0,0,.6-.1l7.1-5a.5.5,0,0,0,.3-.5.4.4,0,0,0-.1-.5l-.8-1.2a5,5,0,0,0-1.5-1.4A6.2,6.2,0,0,0,436.3,354.7Z" style="fill:#fff"/><path d="M436.9,349a8,8,0,0,0-1.7,1.5l.3.3.5,1a12.1,12.1,0,0,1,2.4-2.1,8.3,8.3,0,0,1,6.2-.6,7.6,7.6,0,0,1,2.8,1.5,3.4,3.4,0,0,1,1.5-.6,9.5,9.5,0,0,0-5.8-2.7A9.7,9.7,0,0,0,436.9,349Z" style="fill:#fff"/><path d="M446.9,363.3a7.8,7.8,0,0,1-4.9,1.4,7.4,7.4,0,0,1-4.7-1.8l-1.3.9a10.1,10.1,0,0,0,5.8,2.4,9.5,9.5,0,0,0,5.9-1.7l.6-.5a8.8,8.8,0,0,1-.5-1.5Z" style="fill:#fff"/><path d="M461.7,219.4c.1.1.2.3.3.3l.4.2h.3a19.7,19.7,0,0,1-.2-2.6v-.2h-1.6A15.4,15.4,0,0,1,461.7,219.4Z" style="fill:#fff"/><path d="M468,217.1v2.6h.7a.5.5,0,0,0,.2-.4,13.2,13.2,0,0,0,.7-2.3H468Z" style="fill:#fff"/><path d="M465.2,214.9c-.8.1-1.4,1.4-1.3,2.3a16.9,16.9,0,0,0,.9,5.9q0,.2.3.3h.8l.2-.3a17.5,17.5,0,0,0,.5-6c0-1-.8-2.2-1.4-2.2Z" style="fill:#fff"/><path d="M456.6,216.3v2.8c.1.1.1.3.2.4l.4.2c.1.1.3,0,.4,0s.3-.2.3-.3a6.8,6.8,0,0,1,1.7-2.1,31.8,31.8,0,0,1-1.3-5.1C457.6,212.4,456.5,214,456.6,216.3Z" style="fill:#fff"/><path d="M473.5,219.1c.2-.1.3-.1.4-.3s.1-.2.1-.4v-2.7a5.1,5.1,0,0,0-.5-2.2,5,5,0,0,0-1.5-1.7,47.1,47.1,0,0,1-.9,5.2,5.2,5.2,0,0,1,1.7,1.9l.4.2Z" style="fill:#fff"/><path d="M462.8,206.3a1.5,1.5,0,0,0,.4,1.1,1.8,1.8,0,0,0,.9.8h1.2a2.4,2.4,0,0,0,1.1-.6,3.7,3.7,0,0,0,.5-1.1,1.7,1.7,0,0,0-.2-1.2,1.4,1.4,0,0,0-.8-.9,2.2,2.2,0,0,0-2.6.3A2.7,2.7,0,0,0,462.8,206.3Z" style="fill:#fff"/><path d="M464.9,194.9l-.5-.2-.4.2a13.6,13.6,0,0,0-3,4.1,5.8,5.8,0,0,0,3.6,1,5.7,5.7,0,0,0,3.6-1.3A12.1,12.1,0,0,0,464.9,194.9Z" style="fill:#fff"/><path d="M464.7,201.4a7.3,7.3,0,0,1-4.3-1.1c-1.6,4.2-1.5,9.6.1,15.5h2.2a3.4,3.4,0,0,1,.9-1.4,2.1,2.1,0,0,1,1.5-.7,2,2,0,0,1,1.5.6,2.6,2.6,0,0,1,1,1.3h2.3c.9-4.5,1.3-10.6-1-15.5A7.2,7.2,0,0,1,464.7,201.4Zm3.6,4.7a4.6,4.6,0,0,1-.5,2,4.7,4.7,0,0,1-1.5,1.3,2.7,2.7,0,0,1-2,.2,3.7,3.7,0,0,1-1.8-.8,3.2,3.2,0,0,1-1-1.8,3.5,3.5,0,0,1,.1-2,4.8,4.8,0,0,1,1.2-1.6,3.3,3.3,0,0,1,1.9-.6,3.8,3.8,0,0,1,2.5.9A3.2,3.2,0,0,1,468.3,206.1Z" style="fill:#fff"/><path d="M148.8,451.1l-.4-1.5-13.7,3.5,5.4,18,1.2-.3-3.6-15.7,15.3-2.7,3,17.3h1.6l-1.3-19Z" style="fill:#fff"/><path d="M139.2,456.2l3.4,16.6,12.4-1.4-3.1-17.5Zm4.7,2.2H145l.9.5-.7.9-.5-.3h-.5a.9.9,0,0,0-.6.4,1.2,1.2,0,0,0-.2.8,1.6,1.6,0,0,0,.4.7l.8.2.4-.3a.8.8,0,0,0,.4-.4l1,.6a1.9,1.9,0,0,1-.7.8l-1,.4a1.4,1.4,0,0,1-.9,0,1.1,1.1,0,0,1-.8-.3l-.7-.6-.3-.9v-.8a2,2,0,0,1,.4-.8,1.3,1.3,0,0,1,.7-.6,1.1,1.1,0,0,1,.8-.3Zm8.5,10.6-8.5,1.3-.2-1.1,8.5-1.5Zm-.4-2.3-8.3,1.4-.4-1.2,8.5-1.5Zm-.4-2.3-8.3,1.3-.4-1.1,8.5-1.5Zm-2-2.7-1.4.3-2.5-3.8,1.5-.3,1.4,2.2.6-2.5,1.4-.3Z" style="fill:#fff"/><path d="M409.4,135.8a7.1,7.1,0,0,0-7.1.1,9.7,9.7,0,0,1,4.1,5.6,9,9,0,0,1-1,6.8,6.1,6.1,0,0,0,2.7-.3,7.2,7.2,0,0,0,2.4-1.4,7.3,7.3,0,0,0,1.6-2.3,6,6,0,0,0,.6-2.7l2.4-2.3-3.3-.9A6,6,0,0,0,409.4,135.8Z" style="fill:#fff"/><path d="M401.6,136.9a8.3,8.3,0,0,0-7.1-.6,8.6,8.6,0,0,0-2.9,2.1,7,7,0,0,0-1.8,3.1,9.3,9.3,0,0,0-.2,3.7,9.9,9.9,0,0,0,1.5,3.3,7,7,0,0,0,2.8,2.3,7.3,7.3,0,0,0,3.5.9l2.8,2.9,1.1-3.9a8.9,8.9,0,0,0,3-2.8,8,8,0,0,0,1.1-4,7.8,7.8,0,0,0-.9-4,7.6,7.6,0,0,0-2.9-3Zm-6.3,6.9-.7,1a3,3,0,0,1-.8-.8,5.6,5.6,0,0,1-.4-1.2,2,2,0,0,1,.3-1.1,1.8,1.8,0,0,1,.8-.9,2.2,2.2,0,0,1,1.1-.5,2.5,2.5,0,0,1,1.2.2,2.3,2.3,0,0,1,1,.7,3.7,3.7,0,0,1,.5,1.1l.3,1.3.8.5-.7,1.1-1.2-.8-.4-1.9-.2-.5-.4-.3a1,1,0,0,0-.9-.1,1,1,0,0,0-.8.5,1.4,1.4,0,0,0-.1.9A1.2,1.2,0,0,0,395.3,143.8Zm4.5,2,.6-1,1.1.6-.7,1Z" style="fill:#fff"/><path d="M500.7,280.6a4.8,4.8,0,0,1-.3,1.8,4.1,4.1,0,0,1-1.2,1.4l-1.4,1.1a1.1,1.1,0,0,1-.8.3,1.1,1.1,0,0,1-.8-.2l-.8.2h-1.6a5.4,5.4,0,0,0-1.4,3.6,5.3,5.3,0,0,0,1.3,3.6l.2.3a.6.6,0,0,0,.6.3.5.5,0,0,0,.6-.2l9.6-9.5a.7.7,0,0,0,.3-.6,1,1,0,0,0-.2-.7l-.2-.2C503.3,280.2,502.7,280.4,500.7,280.6Z" style="fill:#fff"/><path d="M491.9,284.4l.3-.4c0-.2.1-.4,0-.6h.1a3,3,0,0,0,1.5.5,3.2,3.2,0,0,0,1.7-.1,1.7,1.7,0,0,1,.1-.7,1.2,1.2,0,0,1,.5-.5l1.4-1.1.3-.5a1.1,1.1,0,0,0,0-.8,4.3,4.3,0,0,0-.2-1.1h.4l.3.4a1.7,1.7,0,0,1-.3,2.5l-1.4,1.1a.4.4,0,0,0-.2.4c-.1.2,0,.3.1.5a.5.5,0,0,0,.4.2h.4l1.4-1.1c1.4-1.1,1-3.2,0-4.5l-.3-.3a.5.5,0,0,0,0-.5.8.8,0,0,0-.2-.4l-1.5-2a.5.5,0,0,0-.4-.3h-.5a4.5,4.5,0,0,0-1.3-1.1,4.7,4.7,0,0,0-3.3-.2,4.6,4.6,0,0,0-1.5.9,5.5,5.5,0,0,0-1.8,3.1,4.8,4.8,0,0,0,.8,3.5.7.7,0,0,0-.1.5c.1.1.1.3.2.4l1.6,2a1,1,0,0,0,.7.4A1.2,1.2,0,0,0,491.9,284.4Zm-1.4-8.7,1-.7,1.2-.2a2.7,2.7,0,0,1,1.2.3,2.2,2.2,0,0,1,.9.7v.5a2.4,2.4,0,0,0-1.8-.5,2.9,2.9,0,0,0-1.8.7,3.9,3.9,0,0,0-1.2,1.9,3.3,3.3,0,0,0,.1,2.2h-.4a3.9,3.9,0,0,1-.6-2.6A3.7,3.7,0,0,1,490.5,275.7Z" style="fill:#fff"/></svg>