<svg version="1" xmlns="http://www.w3.org/2000/svg" width="933.333" height="933.333" viewBox="0 0 700.000000 700.000000"><path d="M324 7.6c-17.7 1.6-21.3 2.4-27.9 6-3.6 2-6.9 3.9-7.3 4.2-.4.4 5.9.8 14 .9 9.9.1 17.6.8 23.7 2.1 7.9 1.7 9.4 1.7 12.3.5 6.2-2.6 30-8.2 39.4-9.3 5.1-.7 10.9-1.4 12.8-1.8 3.4-.6 3.3-.6-2-1.4-6.2-.8-58-1.8-65-1.2z"/><path d="M283 13.2c-11.2 2.3-29.3 7.1-37.9 10l-9.3 3-2.3 5.2c-2.8 6.1-4.3 13.8-5.3 26.6l-.8 9.5-.7-13c-.4-7.2-.3-15.7.2-19 .5-3.3.8-6.1.7-6.2-.1-.1-6.7 2.6-14.7 6-12.7 5.6-33.8 16.4-39.4 20.3-1.9 1.4-1.9 1.4 0 1.4 1.1 0 3.8-1.2 5.9-2.6C183.9 51.3 208 39 209.5 39c.6 0-3.9 2.6-10 5.8-12.1 6.3-22.4 12.4-22.5 13.2 0 .3 2.1 1.3 4.8 2.2 5.5 2 20.5 10.8 24.8 14.5 2.5 2.2 2.5 2.3.4 1.1-1.4-.8-4.5-2.6-7-4.1-6.5-3.7-18.8-8.4-24.3-9.2-4.6-.7-5-.6-11 4.1-10 7.7-18.9 16-25.1 23.3-3.2 3.8-5.8 7.1-5.8 7.4.1.4-1.1 1.9-2.6 3.5-4.9 5.3-13.6 22.8-15.6 31.4l-.6 2.7 7.2-4c13.5-7.5 47.3-22.7 48.3-21.7.2.2-4.7 2.5-10.8 5.2-11.6 5-28.5 14-39.5 20.9l-6.2 3.9v7.1c0 7.7 1 12.4 4.2 20l2.1 4.7 7.6-7.2c13.2-12.6 31.8-27.6 48.6-39.3 10-6.9 6.9-4.1-6.9 6.3-6.5 5-19.9 16.5-29.7 25.7L122 173.2l2.6 3.4c3.8 5 12.4 11 21.6 15.1 2.7 1.1 2.8 1.1 8.4-7.9 10.7-16.8 38.1-53.8 39.9-53.8.2 0-3.1 4.6-7.4 10.2-14.9 19.7-35 52.3-33.3 54 1.9 1.9 16.4 4.1 28.2 4.2l12.4.1.9-4c3.4-15.8 17.3-62.2 18.3-61.2.2.2-.5 3.3-1.5 6.8-4.4 14-13.7 57.6-12.6 58.7 1.3 1.3 27.5-3.9 42.3-8.4 8.2-2.5 8.4-2.6 7.7-5.2-1.7-6.8-12.4-57.1-12.9-60.7-.5-3.2-.4-3.5.3-1.5 1.3 3.4 15.7 52.3 17.1 58.2l1.2 4.7 4.2-1.6c7.7-2.9 30.1-14.2 36.9-18.5l6.7-4.4-11.3-12.4c-6.2-6.9-17.2-17.9-24.3-24.4-17.7-16.3-20.3-19-10.9-11.5 10.3 8.2 28.9 24.5 41.1 36l9.6 9 2.6-1.7c8.2-5.2 32.2-28 32.2-30.5 0-1.9-50-20.8-61.8-23.4-1.8-.4-3.1-.9-2.9-1.2 1.2-1.2 54.7 14.9 66.7 20.1 2.8 1.2 16.2-23 17.7-31.8l.5-3.3-6.3-.7c-26.6-2.8-54-2.7-81.1.4-8.3 1-14.2 1.2-12.3.5.6-.3 7.5-1.1 15.5-2 21.7-2.4 55.5-3.6 71-2.7 9.5.6 13.7.6 14.2-.2 2.3-3.4-.1-21.6-3.7-28.5l-1.4-2.8-13.8 2.3c-24.6 4.3-46.9 10.9-73.7 21.8-4.9 2-9.1 3.4-9.3 3.2-.5-.5 14.9-6.9 29.3-12.1 19.6-7.1 44.8-14.1 61.7-16.9 2-.4 3.7-1.1 3.7-1.5 0-1.8-12-12-18.4-15.6l-6.9-3.9-5.1 1.8c-8 2.8-28.7 12.9-38.2 18.7-4.8 2.9-14 9.2-20.6 14.1-6.5 4.8-11.8 8.6-11.8 8.4 0-.7 13.7-11.3 23-17.8 12.5-8.6 31.7-19.6 40.9-23.3l7.3-2.9-3.8-1.3c-5.9-2.1-21.9-4.3-31.1-4.3h-8.2l-5.8 4.8c-8.2 6.9-19.1 18.6-24.8 26.7-4.9 7.1-7.5 10.3-6 7.5 3.8-6.9 16.2-23.6 22.4-30l7.6-8H273c-1.9.1-7.1.7-11.5 1.5s-8.4 1.4-9 1.4c-2.3-.2 5.7-2.1 16.4-3.9 9.2-1.6 12.4-2.7 17-5.5 5.7-3.6 5.2-4-2.9-2.3zm-32.3 12.4c-.3.3-1.2.4-1.9.1-.8-.3-.5-.6.6-.6 1.1-.1 1.7.2 1.3.5zm-4 1c-.3.3-1.2.4-1.9.1-.8-.3-.5-.6.6-.6 1.1-.1 1.7.2 1.3.5zM216 37c-.8.5-1.9 1-2.5 1-.5 0-.3-.5.5-1s2-1 2.5-1c.6 0 .3.5-.5 1zm38 34.4c0 .2-.8 1-1.7 1.7-1.6 1.3-1.7 1.2-.4-.4 1.3-1.6 2.1-2.1 2.1-1.3zm-9.6 8c13.7 5.7 7.4 23.8-10.6 30.2-5.7 2-15.7 2-20 0-11.5-5.5-7.6-20.1 7.6-27.8 2.2-1.2 5.2-2.4 6.6-2.9 4.1-1.2 12.8-1 16.4.5zm15.3 8.2c-.3.3-1.2.4-1.9.1-.8-.3-.5-.6.6-.6 1.1-.1 1.7.2 1.3.5zm-79.8 2.5c-13.5.8-26 2.8-37.7 6-8.5 2.4-10.6 1.8-4.1-1 7.3-3.2 26.7-5.8 43.9-5.8h10.5l-12.6.8zm86.8 8.5c-.3.3-1.2.4-1.9.1-.8-.3-.5-.6.6-.6 1.1-.1 1.7.2 1.3.5zm4 1c-.3.3-1.2.4-1.9.1-.8-.3-.5-.6.6-.6 1.1-.1 1.7.2 1.3.5zm4.6 1.1c-.7.2-1.9.2-2.5 0-.7-.3-.2-.5 1.2-.5s1.9.2 1.3.5zM178 107c-.8.5-1.9 1-2.5 1-.5 0-.3-.5.5-1s2-1 2.5-1c.6 0 .3.5-.5 1zm57.7 12.2c-.3.8-.6.5-.6-.6-.1-1.1.2-1.7.5-1.3.3.3.4 1.2.1 1.9zM385.5 14.6c-12.8 1.7-19.6 2.9-30.5 5.6-6.9 1.7-12.9 3.3-13.3 3.5-.4.3 3.6 2.7 9 5.3 6.2 3.1 12.1 6.9 16 10.5l6.2 5.6 10.8-1.3c23.2-2.7 64.2-1.4 84 2.7l6.3 1.2-3.1-3.9c-8.1-10.1-26.5-22.9-38.8-27-5.7-1.8-9.2-2.2-25.1-2.4-10.2-.1-19.8 0-21.5.2zM460 26.1c10.7 6.7 15.3 10.2 23.2 17.6 4.8 4.6 9.4 8.3 10.3 8.3 3.2 0 27.3 8.4 39 13.6 11.7 5.1 24.1 11.6 29.8 15.6 1.5 1.1 2.7 1.7 2.7 1.5 0-.9-21.7-16.6-31.3-22.6-20.1-12.7-42.4-23.8-62.9-31.4-13.1-4.9-15.2-5.4-10.8-2.6zM386.5 47.7c-4.9.2-9.4.8-9.8 1.2-.5.5.1 2.4 1.3 4.2 3.1 5.1 5.9 15.1 6.6 23.8l.7 7.9 6.5.6c22.8 2.4 67.9 12.7 89.2 20.6 3 1.1 6 2 6.7 2 1.8 0 1.7-20.6-.2-29.5-1.6-7.5-5.8-19.2-7.8-21.7-2.1-2.7-28.9-7-54.7-8.8-14-.9-19-1-38.5-.3z"/><path d="M162.6 62.5c-8 4.2-34.4 24.9-47.6 37.3l-6.5 6.2 9-4.2c8.1-3.6 10.3-5.3 21-15.8 6.6-6.4 15.8-14.5 20.5-17.9 4.7-3.5 8.7-6.5 8.9-6.7 1.1-1-2.7-.2-5.3 1.1zM499.6 65.4c5.9 10.6 9.4 25.7 9.4 41v10.3l10.6 4.8c22.2 10.2 49 26.2 68.3 40.9 9.4 7 9.6 6.8 8.8-10.3-.8-18-3.7-30.3-10.6-43.9-3-6-3.8-6.7-15.4-14.3C553.5 82.6 531.6 72 513 66c-8.5-2.7-15.6-5-15.7-5-.1 0 .9 2 2.3 4.4zM383.6 91.2c-.2.7-1 3.5-1.7 6.3C380 105 375.7 115 371 123c-2.4 3.9-4.1 7.2-3.9 7.4.2.2 9.6 4.8 20.9 10.3 22.7 11 40.3 20.7 58.2 31.9 6.5 4.1 12 7.4 12.2 7.4 1 0 11.2-17.1 16.1-27.2 5.9-11.9 12.1-29.8 11.2-32.1-1.1-2.9-38-16.2-63.9-23.1-11.3-3-33.1-7.6-35.8-7.6-1.2 0-2.2.6-2.4 1.2zM587.6 103c.4.8 2.1 3.4 3.7 5.8 4.5 6.7 12.4 23.9 14.7 32.2 2.7 9.9 5 24.8 5 33.4v6.9l10.9 11.3c18.3 18.9 34.7 40.7 43.9 58.4l4.4 8.5-.5-17c-.6-19-1-20.7-7.7-35.5-14-31-38.1-67.1-58.5-87.5-5.5-5.5-11.5-11.8-13.3-14-1.8-2.2-3-3.3-2.6-2.5zM111.8 108.6c-9.3 4.8-11.8 6.7-18.4 13.7-9.9 10.7-25.4 31.2-34.7 46.2-11.6 18.7-24.7 45.8-15 31 9.1-13.7 30.2-35 48.4-48.6 9.5-7.3 10.6-8.4 11.7-12.5 1.8-6.7 7.6-18.4 13.6-27.4 3-4.4 5.3-8 5.2-8 0 .1-4.9 2.6-10.8 5.6zM506 134.2c-3.9 15.5-12.3 34.8-21.4 49.6-3.2 5.1-5.6 9.6-5.4 10.1.2.5 5.3 4.6 11.3 9.2 6.1 4.5 16 12.4 22 17.4 12.7 10.6 41.1 36.8 42.8 39.6.6 1 1.5 1.9 2 1.9 1.6 0 13.3-19.2 20.2-33.2 6.4-13.1 15.6-37.3 15.5-40.9-.1-1.8-17.4-15.8-32.2-26.2-14.4-10.1-50.7-31.7-53.1-31.7-.4 0-1.1 1.9-1.7 4.2zm47.7 50.1c1.5 1.3 3.6 2.7 4.7 3.1 1.7.6 1.8.8.2 2.4-.9 1-1.6 2.6-1.6 3.6 0 2.3-4.4 6.6-6.8 6.6-1.7 0-1.9-.6-1.4-4.5.4-3.7 0-5.2-2.1-8.4-1.8-2.8-2.3-4.1-1.4-4.4 2.7-1.2 5.7-.6 8.4 1.6zm-13.4.1c5.5 2.3 7.4 5.6 6.9 12.1-.1 1.1-1.5 3.5-3.2 5.3-1.6 1.8-3 4-3 4.8 0 1.6-1.6 1.9-2.5.4-.3-.5-2.6-1.8-5-2.9-4.5-2-7.5-6-7.5-10.1 0-3.6 3-8.1 6.3-9.5 4-1.8 4.1-1.8 8-.1z"/><path d="M532.6 190.6c-.8.8-1.3 2.1-1 2.9.8 2 2.2 1.9 2-.1-.2-2.8 2-2.6 3.3.2 1.5 3.3 2.5 2.6 1.2-.8-1.2-3.2-3.6-4.1-5.5-2.2zM355.7 144c-6.2 7.3-18.7 19-28.3 26.6l-3.9 3.1 12 12.4c17.1 17.7 53.7 58 55.9 61.6.1.1 4.6-3.4 10.1-7.8 14.5-11.6 29-25.4 39.5-37.5l9.2-10.6-10.9-8c-13-9.6-35.1-24.3-48.8-32.5-10.1-6-26.9-15.3-27.6-15.3-.2 0-3.5 3.6-7.2 8zM87 160.4c-15.3 12.7-29.2 27.7-41.3 44.5l-8.2 11.5-.4 11.2c-.2 7.8.2 13.8 1.4 19.6 1.8 9.2 7.3 23.4 8.5 22.1.4-.4 3.2-5.1 6-10.3 12.1-21.9 30.3-47.9 45.8-65.3l6.9-7.8-2.5-6.7c-2.1-5.7-2.5-8.5-2.6-18.4-.1-6.5-.1-11.8-.1-11.7 0 0-6.1 5.1-13.5 11.3zM309 183.1c-8.3 5.5-29.5 16.2-41 20.9-4.1 1.6-7 3-6.4 3 .6 0 3 5.3 5.4 11.7 11.3 31.3 29.5 79.1 30.5 80.1.5.5 16-6.1 28.7-12.1 19.7-9.3 50.8-27.5 50.8-29.7 0-2.7-57.3-78-59.8-78.7-.4-.1-4.1 2.1-8.2 4.8zM106.4 191.5c-24.8 32.7-33.6 46.3-46.4 71.7l-8 15.6 4.5 5.5c5.9 7.3 18.4 17.2 28.2 22.4 9 4.8 13.7 6.8 12.8 5.3-1.3-2.1 11.1-37.6 21.5-61.5 4.2-9.7 9.1-19.6 17.7-36.5.2-.3-2.7-2-6.5-3.9-4.6-2.4-9.3-6.1-14.8-11.6-5.6-5.6-8.4-7.8-9-7zM607.1 208.2c-3.4 17.2-14.8 43.7-26.9 62.8-5.1 8-5.8 9.7-4.7 11 14.4 16.6 33.7 44.2 45.6 65.3l7.3 12.9 1.8-2.4c4-5.1 16.1-26.2 21.2-36.9 5.6-11.7 11.4-27.4 13.6-36.6l1.2-5.3-4.8-8.7c-6.1-11.2-19.4-31-27.6-41-6.2-7.6-23.5-26.5-24.8-27.1-.3-.1-1.2 2.6-1.9 6zm22.9 57.4c2.1 2.1 2.2 2.7 1 3.4-2 1.3-6.7 1.3-7.5 0-.6-1 2.2-6 3.4-6 .4 0 1.8 1.1 3.1 2.6zm4.6 9c.7 3.8.9 7.5.6 12.6-.2 4.1-1.6 4.8-5.2 2.6-1.5-.9-2.4-.9-4.3.1-1.4.7-2.9 1.1-3.5.7-1.4-.8-2.4-10.1-1.7-14.9l.7-4.2h6.4c6.4 0 6.4 0 7 3.1zm-14.7 16.2c.7 2.5.5 3.4-1 4.8-1.8 1.7-1.9 1.6-1.9-2.8 0-6.6 1.4-7.5 2.9-2zm19.9 1.2c.3 4.3.3 4.4-1.6 2.7-1.3-1.2-1.7-2.6-1.4-4.7.6-4.5 2.6-3.1 3 2zm-9.8 4c0 4.9-1.3 7.3-2.4 4.4-.8-2.1-.8-8.9 0-9.7 1.5-1.4 2.4.7 2.4 5.3zm-5-.9c0 1.1-.4 1.7-1 1.4-.5-.3-1-1.3-1-2.1s.5-1.4 1-1.4c.6 0 1 .9 1 2.1zm9-.7c0 .8-.4 1.8-1 2.1-.5.3-1-.3-1-1.4 0-1.2.5-2.1 1-2.1.6 0 1 .6 1 1.4z"/><path d="M623.9 276.1c-1.6 3 .3 6.9 3.4 6.9 2.9 0 4.7-1.7 4.7-4.5 0-4.5-6-6.3-8.1-2.4zm6.4 1.1c.7 2.1-.4 3.8-2.3 3.8-2.3 0-3.4-1.6-2.6-3.5.7-1.8 4.3-2 4.9-.3zM251.9 209.6c-25.1 8.8-58.7 13.6-81.1 11.5-6.2-.6-15.1-2-19.8-3.1-7.9-1.9-8.5-2-9.7-.4-1.9 2.6-10.7 23.9-16.3 39.5-6.6 18.4-17.9 58.4-16.8 59.5.7.6 16.9 4.5 25.3 6 12.9 2.2 43.4 3.2 44.6 1.3.5-.8.9-4.8.9-8.9 0-15.4 4.4-56.5 8.8-82.5l1.7-10 3.4-.3 3.4-.3-.7 7.8c-2.5 29.1-3.5 76.2-1.9 89.1l.6 5.4 6.1-.7c19.7-2.1 45.3-7.4 65.6-13.6 7.4-2.2 13.7-4.2 13.9-4.5.2-.2-2.1-9.5-5.2-20.7-7.2-25.8-18.7-71-18.7-73.5 0-1 1-2.4 2.3-3 3.5-1.7.7-1.1-6.4 1.4zM461.5 215.6c-9 11-30.1 31.6-43.3 42.1-5.6 4.6-10.2 8.6-10.2 9 0 .5 4.7 6.6 10.4 13.8 12.6 15.9 30.2 39.6 42.6 57.3 6.1 8.8 9.6 13 10.4 12.4 18.4-13.7 48.4-41.3 63.3-58.4 7-8 8.4-10.2 7.7-11.8-1.4-2.9-24-27.4-37.1-40.1-10.2-9.8-35.8-32.9-36.6-32.9-.1 0-3.3 3.9-7.2 8.6zm26.3 40.6c7.7 3.6 12.2 11.4 12.2 20.9-.1 19.1-24.8 28.9-38.4 15.3-8.6-8.7-9-23.1-.8-31.7 7-7.4 17.2-9.1 27-4.5z"/><path d="M469 265.2c-.1.2-.3 2.6-.5 5.5-.7 7.2 1 8.7 8.2 7.8 4.5-.5 5.3-.4 5.3 1 0 .9-1.3 2.4-3 3.3-4.5 2.6-3.5 6.6 1 4.2 1.6-.8 2.5-.8 3.5 0 1.5 1.3 3-.3 2-2.1-.4-.5-.1-2.3.5-4 1-2.4 1-3.3-.5-5.5-1.6-2.5-2.1-2.6-7-2-6.4.7-7.6-.4-3.5-3.6 2-1.6 2.7-2.7 2.1-3.7-.7-1-1.3-1.1-2.9-.2-1.4.7-2.3.8-2.7.1-.5-.9-2.4-1.4-2.5-.8zM25.8 239.3C15.8 261.5 7 310.7 7 344.5c0 10.1.4 12.6 3 20.7 5 15.4 5.4 15.6 6.8 3.6 2.6-21.7 9.4-49.3 17.3-69.4l4.1-10.4-2.6-6.8c-4.8-12.6-6-19.6-6-36 0-8.3-.1-15.2-.1-15.2s-1.7 3.8-3.7 8.3zM677.8 261.2c.4 13.9.6 14.7 5.3 28.9 2.7 8 5.8 18.4 6.8 23 1.1 4.6 2 7.7 2 6.8.1-2.3-2.7-23.3-4.4-32.9-1.5-8-9.2-39-9.9-39.7-.2-.2-.1 6.1.2 13.9zM388.5 279.6c-10.9 8.4-46 27.8-67.9 37.6-7.3 3.2-13 6.3-13 7 .3 2.6 37.9 92.6 39.4 94.1.9 1 24.5-9 43.8-18.7 16.7-8.4 29.5-15.5 46-25.8l11.2-7-3.2-5.7c-13.1-23-51.9-83.1-53.6-83.1-.4 0-1.6.8-2.7 1.6zm-15.9 45.2c2.6 1.8 13.5 17.4 13.2 19-.4 2.1-19.4 12.3-22.3 11.9-1.6-.1-2.6-2-4.8-8.7-1.5-4.7-2.9-10.1-3-12-.2-3.4 0-3.6 6.8-7.2 7.4-3.9 8.3-4.2 10.1-3zm21.9 15.2c.3.5 0 1.8-.7 2.9-1 1.6-.8 2.7.6 6 1 2.2 1.6 4.7 1.3 5.5-.3.8-3.3 2.9-6.7 4.6-5.4 2.7-5.9 3.3-5 5 1.3 2.4 1.3 2.4 5.1.5 3-1.6 4.9-1.3 4.9.8 0 1.2-15.5 9.7-17.8 9.7-2.3 0-1.2-3.1 1.8-4.8 3.1-1.8 3.5-2.8 2.1-5-.6-1.1-2.1-.7-7.1 1.8-3.4 1.7-6.8 2.9-7.6 2.6-.7-.3-2.5-2.3-3.9-4.6s-3.3-4-4.3-4c-2.6 0-3.4-1.1-2.1-2.7 1.5-1.7 5.3-1.7 6.8.1.9 1.1 2.9.4 11.3-4 5.6-3 11.3-5.7 12.7-6.2 1.8-.6 2.6-1.6 2.8-3.6.3-4.4 4.1-7.4 5.8-4.6zM39.6 312.7c-7.6 23.7-12.5 47.2-14.5 69.8-.9 10.8-.9 11.1 1.6 14.7 3.5 5.2 17.5 18.4 25.3 24C57.4 425 78.7 437 80.1 437c.2 0 .3-5.3.1-11.7-.6-20.1 2.6-52 7.8-77.3 1.1-5.4 2-10.4 2-11.2 0-.8-2.6-2.7-5.7-4.2-13.8-6.7-27.3-17.5-36.4-28.9l-3.8-4.7-4.5 13.7zM674 300.1c0 3-5.6 21.3-9.4 30.9-4.7 11.6-12.4 26.6-20.6 39.6-5.9 9.3-6.2 10.1-5.1 12.9 7.9 20.3 14.2 43.6 16.5 61.4.8 6.2 1.7 11.5 1.9 11.8 1.5 1.5 19.9-31.6 26.2-47.2 9.8-24.2 10.6-38 4.4-69.5-3.5-17.5-13.7-46.9-13.9-39.9zm-2.7 72.9c3.8 4.5 4.3 6.9 1.8 9.3-1.2 1.2-2.1 1.6-2.1 1 0-.7.5-1.5 1-1.8.6-.3 1-1.6.9-2.8 0-2.1 0-2.1-.9-.2-1.1 2.8-2.9 4.1-6.6 4.9-3.7.8-5.2-.7-6.1-5.8-1.2-7.5 7-10.6 12-4.6zm9.8 7.6c1.1 1.3.2 2.5-6 8.7-6.9 6.9-7.3 7.1-8.6 5.3-3-4-1.1-9.6 3.2-9.6 2.9 0 6.3-2.5 6.3-4.7 0-1.8 3.5-1.7 5.1.3z"/><path d="M662.8 372.1c-1.2.6-1.8 2.1-1.7 4.2l.1 3.2.7-3c.5-2.3 1.2-3.1 3.4-3.3 1.5-.2 2.5-.8 2.2-1.3-.8-1.2-2.5-1.1-4.7.2zM553.6 307.2c-9.7 11.5-25 27-36.9 37.6-10.7 9.4-26.4 22.5-30.7 25.5-2 1.4-1.8 1.8 7.2 16.3 10.5 17.1 24 41.1 32.8 58.4 3.4 6.6 6.5 12 6.8 12 1.4 0 26.3-20.6 39-32.3 11.6-10.6 31.6-31.6 38.2-40l2.2-2.7-5.6-10.5c-10.4-19.4-22.1-37.7-37.4-58.5-4.6-6.3-8.7-11.8-9.1-12.2-.3-.4-3.3 2.5-6.5 6.4zm.8 50.4c3.1 3 2 4.4-3.4 4.4-4.1 0-5-.3-5-1.8 0-4 5.4-5.7 8.4-2.6zM557 379v16h-13.5l.3-14.7c.1-8.2.5-15.4.7-16.1.3-.8 2.5-1.2 6.5-1.2h6v16zm-15.7-3.8c-.3 4.3-1 7.8-1.4 7.8-1.4 0-1.1-13.4.3-14.8.6-.6 1.3-1.1 1.4-.9.1.1-.1 3.7-.3 7.9zm12.2 26.8c-1.4 2.7-3 5-3.5 5s-2.1-2.3-3.5-5l-2.5-5h12l-2.5 5zM286.9 330.5c-.3.2-8.1 2.6-17.5 5.3-23.4 6.8-39 9.9-69.1 13.8-4.2.5-4.3.6-4.3 4.2 0 6.3 3.9 37.8 7 56.8 2.7 16.9 7.5 41.3 8.2 42 .6.5 23.3-2.6 37.8-5.2 26.1-4.8 70-16.6 70-18.9 0-.5-4.5-14.5-10-31s-12.6-38.3-15.6-48.5c-6-19.8-5.8-19.2-6.5-18.5zm-28.4 39.9c1.7 1.2 1.1 1.6-7.1 4.1-16.6 5-16.5 4.9-6.8 37.7.4 1.3 0 1.8-1.4 1.8-3.3 0-4.9-3.1-9.1-18-4.6-16.3-4.7-17.2-2.6-19 1.2-1 20.5-7.2 24.6-7.9.3-.1 1.4.5 2.4 1.3zm11.8 4.8c1 .8 3.4 7.1 5.7 15.3 4.2 14.7 4.5 16.2 3.2 18.3-1.1 1.7-24.2 8.4-26.8 7.7-2.6-.6-3.3-2.2-8-18.8-4.6-16.3-4.7-16 10.2-20.3 12.7-3.7 13.5-3.8 15.7-2.2z"/><path d="M256.1 384.9c-4.9 1.5-8.1 4.1-5 4.1 2.6 0 14.9-4.1 14.9-5 0-1.4-3.6-1.1-9.9.9zM258.3 392.1c-6.3 2-8.4 4-4 3.8 3.6-.1 13-3.3 13.5-4.7.5-1.6-2.1-1.4-9.5.9zM261.3 398.3c-4.8 1.3-7.3 2.5-7.3 3.5 0 1.5.8 1.4 10.8-1.4 4.8-1.4 6.3-2.7 4.5-3.7-.5-.2-4.1.5-8 1.6zM262.6 405.9c-5.4 1.6-8.8 4.1-5.4 4.1 2.9 0 14.2-3.7 14.6-4.8.5-1.6-2.1-1.4-9.2.7zM103 341.5c0 .2-.9 7.3-1.9 15.7-2.9 22.2-4.4 51-3.8 69 .5 14.2.3 15.8-1.1 15.9-3 0 9.9 3.8 21.8 6.3 16.5 3.5 36.3 5.6 53.3 5.6h14.9l-.6-2.8c-2.6-12.9-6.3-53.8-7.2-80.1l-.7-19.8-14.1-.7c-19-.9-34.2-3-48.1-6.6-12.5-3.2-12.5-3.2-12.5-2.5zm42 41.5c.5 2.3 1.1 2.5 6.8 2.8 6 .3 9 2.2 3.5 2.2-4 0-9.3 3.6-10.6 7.1l-1.2 3-11.5-.3-11.5-.3v-12l6.3-.3c5.2-.2 6.2-.6 6.2-2.1 0-2.7 1-3.2 6.4-2.9 4.4.3 5.1.6 5.6 2.8zm15.5 10.5c3.2 3.2 3.3 7.8.1 10.9-1.2 1.3-2.6 3.1-2.9 4-.8 2-5.7 2.2-5.7.1 0-.8-.8-1.9-1.9-2.4-2.9-1.6-4.4-6.2-3.1-9.6 1.4-3.8 3.8-5.4 7.8-5.5 2.2 0 4.1.8 5.7 2.5zm-27.8 7.1c1.2.3 2.3 1.5 2.5 2.8.2 1.6 1.1 2.2 3.6 2.4 2.9.3 3.2.1 3.2-2.2 0-3 1.6-3.5 2.5-.7.3 1 1.4 2.6 2.5 3.6 1.5 1.3 2 3.1 2 6.7v4.9l-14.7-.3-14.8-.3-.3-8.8-.3-8.7h5.8c3.2 0 6.8.3 8 .6zm7.3 1.4c0 .5-.7 1-1.5 1s-1.5-.5-1.5-1c0-.6.7-1 1.5-1s1.5.4 1.5 1zm17 14c0 3.6-.3 4-2.5 4-1.8 0-2.6-.7-3.1-2.5-.9-3.6.2-5.5 3.1-5.5 2.3 0 2.5.4 2.5 4z"/><path d="M135 384c0 .5 1.8 1 4 1s4-.5 4-1c0-.6-1.8-1-4-1s-4 .4-4 1zM151 395c-1.1 1.1-2 2.9-2 4 0 2.5 3.4 6 5.8 6 5.7-.1 7.5-8.2 2.3-10.9-2.8-1.5-3.8-1.4-6.1.9zM8.6 386c1 9.7 5.4 35.3 7.5 43 1 4.1 1.7 5.7 1.4 3.5-.3-2.2-1-10.8-1.6-19-1-13-1.6-16.2-4.5-24l-3.4-9 .6 5.5zM453 393.2c-21.7 14.1-58 33.3-83.1 43.8l-12.7 5.4 1.8 4c1 2.3 4.8 11.1 8.5 19.6 5.5 12.7 29.4 66 29.9 66.7.4.5 28.1-11.7 43.2-19.1 25.7-12.5 65.4-35.8 65.4-38.4 0-2.7-42.9-85-45.2-86.7-.2-.1-3.7 2-7.8 4.7zm-5.5 45.6c.6.4 1.9 2 2.9 3.6l1.8 2.9-9.9 9.9-9.9 9.9-13 1.9c-7.1 1.1-13.2 2-13.6 2-.4 0-1.5-1.4-2.4-3.1-2.5-4.9-1.2-7.4 5.6-11.1 5.4-3 6-3.6 5.5-5.9-.7-3.3 1-5.1 7.2-7.9 5.6-2.5 5.8-2.5 8.2.1l1.9 2 4.8-2.5c4.9-2.5 9-3.2 10.9-1.8zm10.5 18.4c2.6 5.5 3.8 9.1 3.4 10.5-.5 1.7-5.4 4.7-20.1 12.3-24.4 12.7-24.1 12.7-30 1.5-2.3-4.4-4.2-8.3-4.3-8.6 0-.4 6.2-1.6 13.8-2.8l13.7-2.2 8.8-9.4c4.9-5.2 9.3-9.5 9.8-9.5.6 0 2.8 3.7 4.9 8.2z"/><path d="M421.8 445.6c-2.4 1.2-3.8 3.4-2.3 3.4 1.2 0 7.5-3.5 7.5-4.2 0-1.2-2.2-.9-5.2.8zM619.3 404.4c-.4.8-5.5 6.7-11.3 13.2-12.7 14.2-34.1 34.2-51 47.7-6.9 5.5-13.1 10.5-13.8 11.2-1 .9-.3 3.3 3.4 12.1 5.2 12.5 16.6 46.1 18.5 54.6.7 3.2 1.5 5.8 1.9 5.8.8 0 15.9-12.1 26-20.7 10.9-9.5 32-30.4 41.1-41l8-9.2-1.1-8.3c-2.4-17.8-7.4-36.3-15.1-56.4-4-10.3-5.1-11.7-6.6-9zm-16.2 66.2c4.2 2.1 3.1 2.7-2.5 1.2-4.1-1.1-5-1-8.1.6-4.6 2.5-5.7 1.3-1.4-1.3 4.1-2.5 7.9-2.7 12-.5zm-17.3 3.6c2.1 2.1 1.5 6.7-1.2 7.9-3.4 1.6-6.6-.3-6.6-3.9 0-3.3 1.6-5.2 4.5-5.2 1.2 0 2.6.5 3.3 1.2zm26 4.1c.4 3.4-1.3 5.7-4.2 5.7-2.8 0-4.6-1.8-4.6-4.5 0-3 2-4.6 5.5-4.3 2.5.2 3.1.8 3.3 3.1zm-18.7 2.8c1.1 1.1 1.9 2.4 1.7 2.9-.2.5-2.5 2.5-5.3 4.5l-5 3.5-1.7-2.1c-2.5-2.9-2.2-4.6.7-5.3 1.3-.3 3.2-1.7 4.2-3.1 2.2-3 2.8-3 5.4-.4zm25.1 1.6c1 .9 1.8 2.1 1.8 2.7-.1 1.2-9 7.6-10.7 7.6-1.3 0-3.4-5.5-2.6-6.4.4-.3 1.4-.6 2.4-.6s2.6-1.1 3.6-2.5c2.1-2.9 3-3 5.5-.8zm-16.9 8.9c2.1-.8 3.7-1.1 3.7-.5 0 1.7-6.8 4-9.8 3.3-3.9-1-6.3-2.4-5.7-3.4.3-.4 2.2-.2 4.3.7 3.4 1.3 4.3 1.3 7.5-.1zM25.3 428.5c1 21.1 6.4 46.5 14.3 67.1 2.7 7.2 4.9 10.8 9.8 16.6 10.6 12.4 24.4 23.1 42 32.4 8.4 4.4 10.8 5.3 10.1 3.8-.4-1-2.7-7.5-5.1-14.4-7.1-20.9-12.3-43.5-14.5-64.3l-1.3-11.8-10.4-5.4c-14.5-7.6-24.9-15.4-36-27l-9.5-10 .6 13zM684.6 422.6c-1.7 6.8-12.2 28.8-19.7 41.2-7.7 12.8-8.2 14.1-9 21.4-1.1 9.3-3.1 19.2-5.7 27.5-1.1 3.5-1.8 6.3-1.7 6.3.2 0 2.6-4.2 5.3-9.3 7.4-13.7 15.5-32.6 21.1-49.3 5.1-14.9 11.6-39.3 10.8-40.1-.3-.2-.8.8-1.1 2.3zM83 438c.8.5 2 1 2.5 1 .6 0 .3-.5-.5-1s-1.9-1-2.5-1c-.5 0-.3.5.5 1zM88 440c.8.5 2 1 2.5 1 .6 0 .3-.5-.5-1s-1.9-1-2.5-1c-.5 0-.3.5.5 1zM315.5 456.7c-26.6 8.3-55.2 14.4-84.2 17.9-9.6 1.2-14.3 2.2-14.3 3 0 2.3 9.9 36.1 14.9 50.4 5.6 16.4 14.5 38.8 16 40.3 1.3 1.3 24.2-1.3 44.1-4.9 19.8-3.6 70.8-16.8 72.9-18.9.2-.3-3.7-10-8.7-21.7-5-11.7-12.9-31.2-17.7-43.3-10.6-27.2-10.3-26.5-11.2-26.4-.5.1-5.7 1.7-11.8 3.6zm-27.7 43.8c3.2 2.7 5.9 10.8 4.9 14.5-.5 1.8 0 2 5.1 2h5.7l2.9 5.2 2.9 5.1-3.4 2.9c-7.9 6.6-20.8 10.6-29.8 9.3-9.4-1.3-9.1-1.1-9.1-7.4v-5.8l4.9-2.6 4.9-2.7-2-3.9c-1.1-2.2-2-6.1-2.1-8.6-.2-4.1.2-5 3.1-7.6 4-3.6 8-3.8 12-.4z"/><path d="M283.3 506.2c-1 1.1-3 2.6-4.5 3.4-3.5 1.8-3.6 4.7-.3 7.9 4.8 4.9 11.5 1.9 11.5-5.1 0-6.6-3.4-9.8-6.7-6.2zM289.7 519.8c-.3.4-.3 2 .1 3.7.4 2.6.6 2.7 1.3 1 1.1-2.8 1.1-5.5 0-5.5-.6 0-1.2.3-1.4.8zM278.6 522.9c-.3.4.6 1.9 1.9 3.1 2.8 2.6 3 2.4 1.5-1.4-1-2.6-2.4-3.3-3.4-1.7zM285 523.5c0 .8.5 1.5 1 1.5.6 0 1-.7 1-1.5s-.4-1.5-1-1.5c-.5 0-1 .7-1 1.5zM285.7 527.7c-.6 1 .9 4.9 2.1 5.7 1.3.8 2.2-1.7 1.5-4.3-.5-2-2.7-2.9-3.6-1.4zM100.5 469.9c4 29.5 8.9 49.8 18.2 75.3l4.6 12.7 4.6 1.5c18.9 6.2 57 11.6 82.2 11.6h8.7l-4.4-11.3c-8.3-20.9-19-56.8-23.9-80.3-.4-2-1.2-2.1-18.7-2.7-21.1-.7-40.3-3.3-58.9-8.1l-13-3.4.6 4.7zm66.8 37.5c12.5 3 16.9 4.7 15.6 6-.2.3-6.5 3.3-13.9 6.8l-13.5 6.4-14.5-3.5c-9.5-2.4-14.5-4.1-14.5-4.9 0-1 24.1-13.8 26.5-14.1.3 0 6.7 1.5 14.3 3.3zm13 18.7c.3 3.9 1 7.6 1.5 8.2 1.5 1.9.2 14.7-1.4 14.7-.9 0-1.4-1.2-1.4-3.3 0-1.7-.7-4.5-1.5-6-.9-1.8-1.2-3.5-.6-4.5.5-1 .5-4.6.1-8.2-.8-6.1-.3-7.9 2.1-8 .3 0 .9 3.2 1.2 7.1zm-7.9.4c.4 1.9.2 4.3-.3 5.4-1.9 3.4-9.6 5.6-19.7 5.6-10.9 0-13.4-1.4-13.4-7.5v-3.7l8.3 1.9 8.2 2 7.5-3.5c4.1-1.9 7.8-3.6 8.1-3.6.4-.1 1 1.5 1.3 3.4zM506.5 502c-22.5 14.5-63.8 36.4-89.1 47l-10.2 4.2 4 8.7c6.2 13.6 26.5 54.4 28 56.4 1.3 1.8 2.1 1.5 15.8-4.3 25.6-11 50.4-24 75.7-39.9 6.8-4.2 12.3-8.2 12.3-8.8 0-4-24.3-66-26.8-68.5-.4-.4-4.8 1.9-9.7 5.2zM495 552.3c3 5.7 5.1 11 4.8 11.8-.5 1.4-29.5 16.9-31.6 16.9-1.3 0-12.4-21.1-11.8-22.5.5-1.4 29.5-16.4 31.7-16.5 1 0 3.5 3.6 6.9 10.3zm-3.4 21.7c.8.8 1.9.7 3.8-.1 1.4-.7 2.9-.9 3.3-.6.9 1 1.1.8-11.4 7.1-7.4 3.7-11.3 5.1-11.3 4.3 0-.8 1.2-1.9 2.6-2.6 1.7-.7 2.4-1.7 2-2.6-.4-1 .9-2.3 4.2-4 5.5-2.8 5.5-2.8 6.8-1.5zM638 501.8c-6.3 8.6-40.3 41.6-54 52.6l-13.5 10.7-.1 17.7c0 13.2-.5 18.9-1.6 22.4-1.9 5.6-2.2 5.8 9.7-3.8 25.8-20.7 46.9-43.4 54.7-58.8 3.7-7.4 7.3-21.3 8.7-33.9 1.6-14.2 1.5-14.3-3.9-6.9zM62.6 537.8c4.2 7.3 23.7 32.4 33.6 43.2 17.5 19.3 49.5 46.7 61.8 53 3.5 1.8 3 1-5.1-7.2-15.2-15.6-26.8-30.8-36.4-47.7l-5.4-9.6-7.8-3.9c-11.4-5.6-25.9-15.5-34.8-23.8-6.1-5.7-7.4-6.6-5.9-4zM372 566.2c-6.2 2.5-33.1 10.2-48.9 13.8-17.6 4.1-41.9 8.3-54.6 9.5-11.7 1.1-11.3.3-5.4 11.3 10.9 20.2 24 40 32.8 49.3l4.6 4.8 15-2c19.1-2.5 41.9-6.9 61-11.9 18.7-4.8 34.7-9.9 34.1-10.8-.2-.4-2.3-3.9-4.6-7.7-6.5-10.6-18.1-31.8-24.9-45.4-3.4-6.6-6.2-12.1-6.4-12-.1 0-1.3.5-2.7 1.1zm-38.6 37c1.6 2.6-.4 5.3-4 5.3-2.3 0-3-.5-3.2-2.3-.7-4.7 4.7-6.9 7.2-3zm4.6 9.3c0 .7-1.9 1.7-4.2 2.4-2.4.7-5.1 1.5-6 1.7-1.5.4-1.8-.1-1.8-2.6 0-2.9.2-3.2 2.4-2.6 1.6.4 3.2-.1 4.7-1.4 2.2-1.7 2.5-1.8 3.7-.3.6.9 1.2 2.2 1.2 2.8zm12 2.3c0 1.9-4.3 13.2-5.3 14-.7.6-4.1 1.8-7.6 2.7l-6.4 1.6-3.4-3.3c-5.2-4.9-5.9-6.7-3.6-8.9 1.4-1.4 3.7-2 9.6-2.3 6.9-.3 7.7-.2 7.7 1.4 0 1.2-1 2.1-3 2.5-2.9.6-4.2 2.5-1.7 2.5 4-.1 5.9-1.5 7.8-6.1 1.5-3.4 2.7-4.9 4-4.9 1.1 0 1.9.4 1.9.8zm-25.5 14.9c4.8 5.2 5.2 6.4 3.1 8.2-1 .9-2.4-.2-6.5-4.9-2.9-3.3-4.9-6.4-4.6-7 1.3-2 3.8-.9 8 3.7zM134 579.7c0 1.2 9.4 17.5 14.1 24.4 6.6 9.8 15.9 21.1 25.3 30.7 8.3 8.5 9.5 9.4 15.6 11.1 21.9 6.3 48.7 10.1 71.8 10.1h12.4l-6.9-7.8c-12.2-13.6-21.7-27.2-32.3-46.3l-5.3-9.6-16.9-.6c-20.7-.8-42-3.8-59.8-8.4-18.3-4.7-18-4.7-18-3.6zm72.1 29.3h4.7l.6 6.7c.4 3.8.9 9.4 1.2 12.7.4 4.5.2 5.7-.8 5.4-.8-.3-2-4.6-3.2-11.4-1-6-1.9-11-2-11.1-.4-.5-19.1 2.9-19.8 3.6-.4.3.4 5.1 1.7 10.6 2.2 9.2 2.4 11.7.9 10.3-.7-.8-7.4-23.1-7-23.5 1.2-1.2 17.3-4.9 18.1-4.2.5.5 3 .9 5.6.9zm-.7 5.7c1 3.6 3.8 21.4 3.5 21.8-.2.2-4 .6-8.4 1l-8 .7-2.2-10.8c-1.2-6-2-11-1.8-11.2.2-.3 12.2-2.6 15.7-3.1.4-.1.9.7 1.2 1.6z"/><path d="M201 619.6c0 1.3-.3 1.4-1.4.5-2.4-2-7-1-7.4 1.7-.4 2.5 2.3 4.1 4.1 2.3.8-.8.7-1.1-.6-1.1-2.2 0-2.2-1.6 0-2.4 1.1-.5 2.3.1 3.5 1.6 1.5 2 1.9 2.1 2.8.8 1.3-1.9 1.3-5 0-5-.5 0-1 .7-1 1.6zM195.8 626.7c-1.6.2-2.8.9-2.8 1.4 0 1.1 8.5.2 11-1.2 1.6-.9-2.9-1-8.2-.2zM196.8 629.7c-1.6.2-2.8.9-2.8 1.4 0 1.2 9 .1 10.5-1.2.9-.9-2.5-1-7.7-.2zM198.5 632.7c-1.6.3-3.4.9-4 1.4-1.3 1.3 9.6 0 11-1.2.9-.9-1.4-1-7-.2zM535.9 588.6c-24 15.4-57 32.3-85.1 43.8l-3.7 1.5 4.5 8.3c2.6 4.6 6.9 11.8 9.7 16 5.7 8.7 3.6 8.5 18.6 2.1 20.1-8.6 45.3-22 63.9-33.9l8.2-5.4v-8.8c0-10.9-3.1-30.2-4.9-30.2-.4 0-5.4 3-11.2 6.6zM566.5 615.6l-4 3.6 4.3-3.2c3.6-2.7 4.9-4 4-4-.2 0-2.1 1.6-4.3 3.6zM541 633.1c-15.2 10-47 26.6-65.3 33.9-3.4 1.4-5.4 2.7-4.8 3.3 1.3 1.3 28.7-10.8 44.7-19.7 14.9-8.4 33.4-20.4 33.4-21.7 0-1.2.6-1.5-8 4.2zM417.8 644.5c-.2.3-9 2.9-19.5 5.9-26.5 7.6-49.3 12.1-82.2 16.2l-4.5.6 4 3.4c12.7 11.1 32.7 21.3 41.5 21.4 15 0 51.5-7.2 78.7-15.6l11.3-3.5-5.1-4c-2.8-2.2-9-8.7-13.7-14.5-8.3-10-9.4-11-10.5-9.9zM199 656.6c0 .9 11.6 7 19.2 10.3 28.2 12 68.5 22.2 97.3 24.6 3.9.3 9.5.8 12.5 1l5.5.5-9-3.3c-11.8-4.4-17.6-7.4-28.7-15l-9.3-6.4-17.5-.6c-21-.7-35.5-2.7-55.2-7.6-8.2-2-14.8-3.6-14.8-3.5zM448 677.1c-1.4.6-7.7 2.6-14 4.4-6.3 1.9-10.8 3.4-10 3.4 3.1.1 31-7.5 31-8.4 0-.8-4.4-.4-7 .6zM419.8 685.7c.7.3 1.6.2 1.9-.1.4-.3-.2-.6-1.3-.5-1.1 0-1.4.3-.6.6zM415.8 686.7c.7.3 1.6.2 1.9-.1.4-.3-.2-.6-1.3-.5-1.1 0-1.4.3-.6.6z"/></svg>